<?xml version="1.0" encoding="utf-8"?>
<!-- Generator: Adobe Illustrator 19.0.0, SVG Export Plug-In . SVG Version: 6.00 Build 0)  -->
<svg version="1.1" id="Layer_1" xmlns="http://www.w3.org/2000/svg" xmlns:xlink="http://www.w3.org/1999/xlink" x="0px" y="0px"
	 viewBox="0 0 181.2 39.7" style="enable-background:new 0 0 181.2 39.7;" xml:space="preserve">
<style type="text/css">
	.st0{clip-path:url(#SVGID_2_);fill:#333333;}
	.st1{clip-path:url(#SVGID_2_);fill:none;stroke:#8CC63F;stroke-width:1.397;stroke-miterlimit:10;}
	.st2{clip-path:url(#SVGID_2_);fill:none;stroke:#8CC63F;stroke-width:1.397;stroke-miterlimit:10;stroke-dasharray:2.476,0.99;}
	.st3{clip-path:url(#SVGID_2_);fill:#8CC63F;}
	.st4{clip-path:url(#SVGID_2_);fill:none;stroke:#009245;stroke-width:1.397;stroke-miterlimit:10;}
	.st5{clip-path:url(#SVGID_2_);fill:#009245;}
	.st6{clip-path:url(#SVGID_4_);fill:url(#SVGID_5_);}
	.st7{clip-path:url(#SVGID_7_);fill:url(#SVGID_8_);}
	.st8{clip-path:url(#SVGID_10_);fill:#8CC63F;}
	.st9{clip-path:url(#SVGID_10_);fill:#009245;}
</style>
<g>
	<defs>
		<rect id="SVGID_1_" y="0" width="181.2" height="39.7"/>
	</defs>
	<clipPath id="SVGID_2_">
		<use xlink:href="#SVGID_1_"  style="overflow:visible;"/>
	</clipPath>
	<path class="st0" d="M11.1,34.4c-0.4,0-0.7-0.2-0.9-0.6l-0.3-1.4C9.6,32.7,9.3,33,9,33.3c-0.3,0.3-0.7,0.5-1.1,0.7
		c-0.4,0.2-0.8,0.3-1.2,0.5c-0.4,0.1-0.9,0.2-1.4,0.2c-0.8,0-1.5-0.2-2.2-0.5c-0.7-0.3-1.2-0.8-1.7-1.4c-0.5-0.6-0.8-1.4-1.1-2.3
		S0,28.5,0,27.3c0-1.1,0.1-2,0.4-3c0.3-0.9,0.7-1.7,1.2-2.4c0.5-0.7,1.2-1.2,1.9-1.6c0.8-0.4,1.6-0.6,2.5-0.6c0.8,0,1.5,0.1,2.1,0.4
		c0.6,0.3,1.1,0.6,1.5,1v-7.6h3.5v20.8H11.1z M6.5,31.9c0.7,0,1.3-0.1,1.8-0.4c0.5-0.3,1-0.7,1.4-1.3v-6.4c-0.4-0.5-0.8-0.8-1.3-1
		c-0.5-0.2-1-0.3-1.5-0.3c-0.5,0-1,0.1-1.4,0.3c-0.4,0.2-0.8,0.5-1.1,0.9C4.2,24,4,24.5,3.8,25.1c-0.2,0.6-0.2,1.3-0.2,2.2
		c0,0.8,0.1,1.5,0.2,2.1c0.1,0.6,0.3,1.1,0.6,1.4c0.3,0.4,0.6,0.6,0.9,0.8C5.6,31.8,6,31.9,6.5,31.9"/>
	<path class="st1" d="M17.8,10.4c0.1-0.4,0.2-0.8,0.3-1.2"/>
	<path class="st2" d="M18.4,8.2c1.7-4.4,5.9-7.5,10.9-7.5c5.9,0,10.7,4.3,11.6,9.9"/>
	<path class="st1" d="M41,11.1c0,0.4,0.1,0.8,0.1,1.3"/>
	<polygon class="st3" points="19.3,10.1 17.7,12.4 16.5,9.9 	"/>
	<path class="st4" d="M20.3,12.4c0-5,4.1-9.1,9.1-9.1c4.3,0,7.9,3,8.8,7.1"/>
	<polygon class="st5" points="36.7,10.2 38.4,12.4 39.5,9.8 	"/>
	<path class="st0" d="M29.2,20.1c0.6,0,1.2,0.1,1.7,0.2c0.5,0.1,1,0.3,1.5,0.6h4.1v1.3c0,0.2-0.1,0.4-0.2,0.5
		c-0.1,0.1-0.3,0.2-0.6,0.3l-1.3,0.2c0.1,0.2,0.2,0.5,0.2,0.8c0.1,0.3,0.1,0.6,0.1,0.9c0,0.7-0.1,1.3-0.4,1.9
		c-0.3,0.6-0.7,1.1-1.2,1.5c-0.5,0.4-1.1,0.7-1.8,0.9c-0.7,0.2-1.4,0.3-2.2,0.3c-0.5,0-1.1-0.1-1.6-0.2c-0.4,0.3-0.7,0.6-0.7,0.9
		c0,0.3,0.1,0.5,0.4,0.6c0.3,0.1,0.6,0.2,1,0.3c0.4,0.1,0.9,0.1,1.5,0.1c0.6,0,1.1,0,1.7,0.1c0.6,0,1.1,0.1,1.7,0.2s1,0.3,1.5,0.6
		c0.4,0.3,0.8,0.6,1,1c0.3,0.4,0.4,1,0.4,1.7c0,0.6-0.2,1.3-0.5,1.8c-0.3,0.6-0.8,1.1-1.4,1.6c-0.6,0.5-1.3,0.8-2.2,1.1
		s-1.8,0.4-2.9,0.4c-1.1,0-2-0.1-2.8-0.3c-0.8-0.2-1.5-0.5-2-0.8c-0.5-0.3-0.9-0.8-1.2-1.2c-0.3-0.5-0.4-0.9-0.4-1.4
		c0-0.7,0.2-1.2,0.6-1.7c0.4-0.5,1-0.8,1.7-1.1c-0.4-0.2-0.6-0.5-0.9-0.8S24,31.6,24,31.1c0-0.2,0-0.4,0.1-0.7
		c0.1-0.2,0.2-0.5,0.3-0.7c0.2-0.2,0.3-0.4,0.6-0.6c0.2-0.2,0.5-0.4,0.8-0.5c-0.7-0.4-1.3-0.9-1.7-1.6c-0.4-0.7-0.6-1.4-0.6-2.3
		c0-0.7,0.1-1.3,0.4-1.9c0.3-0.6,0.7-1.1,1.2-1.5c0.5-0.4,1.1-0.7,1.8-0.9C27.6,20.2,28.4,20.1,29.2,20.1 M33,35.3
		c0-0.3-0.1-0.5-0.3-0.7c-0.2-0.2-0.4-0.3-0.7-0.4c-0.3-0.1-0.6-0.2-1-0.2c-0.4,0-0.8-0.1-1.2-0.1h-1.3c-0.5,0-0.9-0.1-1.3-0.2
		c-0.4,0.2-0.7,0.5-0.9,0.8c-0.2,0.3-0.4,0.6-0.4,1c0,0.3,0.1,0.5,0.2,0.7c0.1,0.2,0.3,0.4,0.6,0.6c0.3,0.2,0.6,0.3,1.1,0.4
		c0.4,0.1,1,0.1,1.6,0.1c0.6,0,1.2-0.1,1.7-0.1c0.5-0.1,0.9-0.2,1.2-0.4c0.3-0.2,0.5-0.4,0.7-0.6C32.9,35.8,33,35.5,33,35.3
		 M29.2,27.1c0.4,0,0.8-0.1,1.1-0.2c0.3-0.1,0.6-0.3,0.8-0.5c0.2-0.2,0.4-0.5,0.5-0.7c0.1-0.3,0.2-0.6,0.2-1c0-0.7-0.2-1.3-0.6-1.7
		c-0.4-0.4-1.1-0.6-1.9-0.6c-0.8,0-1.5,0.2-1.9,0.6c-0.4,0.4-0.6,1-0.6,1.7c0,0.3,0.1,0.6,0.2,0.9c0.1,0.3,0.3,0.5,0.5,0.7
		c0.2,0.2,0.5,0.4,0.8,0.5C28.4,27.1,28.8,27.1,29.2,27.1"/>
	<path class="st0" d="M51,34.9c-1.2,0-2.2-0.4-2.9-1.1c-0.7-0.7-1-1.7-1-2.9v-8h-1.5c-0.2,0-0.3-0.1-0.5-0.2
		c-0.1-0.1-0.2-0.3-0.2-0.5v-1.4l2.3-0.4l0.7-3.9c0-0.2,0.1-0.3,0.3-0.4c0.1-0.1,0.3-0.2,0.5-0.2h1.8v4.5h3.8v2.5h-3.8v7.8
		c0,0.4,0.1,0.8,0.3,1c0.2,0.3,0.5,0.4,0.9,0.4c0.2,0,0.4,0,0.5-0.1c0.1-0.1,0.3-0.1,0.4-0.2c0.1-0.1,0.2-0.1,0.3-0.2
		c0.1-0.1,0.2-0.1,0.3-0.1c0.1,0,0.2,0,0.3,0.1c0.1,0.1,0.1,0.1,0.2,0.2l1,1.7c-0.5,0.4-1.1,0.7-1.7,1S51.7,34.9,51,34.9"/>
	<path class="st0" d="M68.3,34.7h-1.6c-0.3,0-0.6,0-0.8-0.1c-0.2-0.1-0.3-0.3-0.4-0.6l-0.3-1c-0.4,0.3-0.7,0.6-1.1,0.9
		c-0.3,0.2-0.7,0.5-1.1,0.6c-0.4,0.2-0.8,0.3-1.2,0.4c-0.4,0.1-0.9,0.1-1.4,0.1c-0.6,0-1.2-0.1-1.7-0.2c-0.5-0.2-1-0.4-1.3-0.7
		c-0.4-0.3-0.7-0.7-0.9-1.2c-0.2-0.5-0.3-1.1-0.3-1.7c0-0.5,0.1-1.1,0.4-1.6c0.3-0.5,0.8-1,1.4-1.4c0.7-0.4,1.5-0.8,2.6-1.1
		c1.1-0.3,2.5-0.4,4.1-0.4v-0.8c0-1-0.2-1.7-0.6-2.1c-0.4-0.5-1-0.7-1.8-0.7c-0.6,0-1,0.1-1.4,0.2c-0.4,0.1-0.7,0.3-1,0.4
		c-0.3,0.2-0.5,0.3-0.8,0.4C59.2,24,59,24,58.7,24c-0.2,0-0.4-0.1-0.6-0.2c-0.2-0.1-0.3-0.3-0.4-0.4l-0.6-1.1c1.6-1.5,3.6-2.3,6-2.3
		c0.8,0,1.6,0.1,2.2,0.4c0.7,0.3,1.2,0.7,1.7,1.1c0.5,0.5,0.8,1.1,1,1.8c0.2,0.7,0.4,1.4,0.4,2.2V34.7z M61.6,32.5
		c0.4,0,0.7,0,1-0.1c0.3-0.1,0.6-0.2,0.8-0.3c0.3-0.1,0.5-0.3,0.8-0.5c0.2-0.2,0.5-0.4,0.7-0.7v-2.4c-1,0-1.8,0.1-2.5,0.2
		c-0.7,0.1-1.2,0.3-1.6,0.5c-0.4,0.2-0.7,0.4-0.9,0.7c-0.2,0.3-0.3,0.5-0.3,0.9c0,0.6,0.2,1,0.5,1.3C60.6,32.4,61.1,32.5,61.6,32.5"
		/>
	<rect x="72" y="13.9" class="st0" width="3.5" height="20.8"/>
	<path class="st0" d="M89.4,23.4c-0.1,0.1-0.2,0.2-0.3,0.3c-0.1,0.1-0.2,0.1-0.4,0.1c-0.2,0-0.3-0.1-0.5-0.2s-0.4-0.2-0.6-0.4
		S87,23,86.7,22.9c-0.3-0.1-0.7-0.2-1.2-0.2c-0.6,0-1.1,0.1-1.6,0.3c-0.5,0.2-0.8,0.5-1.1,0.9c-0.3,0.4-0.5,0.9-0.7,1.5
		c-0.1,0.6-0.2,1.2-0.2,2c0,0.8,0.1,1.4,0.2,2c0.2,0.6,0.4,1.1,0.7,1.5c0.3,0.4,0.7,0.7,1.1,0.9c0.4,0.2,0.9,0.3,1.5,0.3
		c0.5,0,1-0.1,1.3-0.2c0.3-0.1,0.6-0.3,0.9-0.4c0.2-0.2,0.4-0.3,0.6-0.4c0.2-0.1,0.4-0.2,0.6-0.2c0.3,0,0.5,0.1,0.6,0.3l1,1.3
		c-0.4,0.4-0.8,0.8-1.2,1.1c-0.4,0.3-0.9,0.5-1.4,0.7c-0.5,0.2-1,0.3-1.5,0.4c-0.5,0.1-1,0.1-1.5,0.1c-0.9,0-1.7-0.2-2.5-0.5
		c-0.8-0.3-1.5-0.8-2-1.4c-0.6-0.6-1-1.4-1.4-2.3c-0.3-0.9-0.5-2-0.5-3.1c0-1.1,0.2-2,0.5-2.9c0.3-0.9,0.7-1.7,1.3-2.3
		c0.6-0.7,1.3-1.2,2.2-1.5c0.9-0.4,1.9-0.6,3-0.6c1.1,0,2,0.2,2.8,0.5c0.8,0.3,1.5,0.8,2.2,1.5L89.4,23.4z"/>
	<path class="st0" d="M96.8,16.1c0,0.3-0.1,0.6-0.2,0.8c-0.1,0.3-0.3,0.5-0.5,0.7c-0.2,0.2-0.4,0.4-0.7,0.5
		c-0.3,0.1-0.6,0.2-0.9,0.2c-0.3,0-0.6-0.1-0.8-0.2c-0.3-0.1-0.5-0.3-0.7-0.5c-0.2-0.2-0.4-0.4-0.5-0.7c-0.1-0.3-0.2-0.5-0.2-0.8
		c0-0.3,0.1-0.6,0.2-0.9c0.1-0.3,0.3-0.5,0.5-0.7c0.2-0.2,0.4-0.4,0.7-0.5c0.3-0.1,0.5-0.2,0.8-0.2c0.3,0,0.6,0.1,0.9,0.2
		c0.3,0.1,0.5,0.3,0.7,0.5c0.2,0.2,0.4,0.4,0.5,0.7C96.8,15.5,96.8,15.8,96.8,16.1 M96.3,34.7h-3.5V20.3h3.5V34.7z"/>
	<path class="st0" d="M104.9,34.9c-1.2,0-2.2-0.4-2.9-1.1c-0.7-0.7-1-1.7-1-2.9v-8h-1.5c-0.2,0-0.3-0.1-0.5-0.2
		c-0.1-0.1-0.2-0.3-0.2-0.5v-1.4l2.3-0.4l0.7-3.9c0-0.2,0.1-0.3,0.3-0.4c0.1-0.1,0.3-0.2,0.5-0.2h1.8v4.5h3.8v2.5h-3.8v7.8
		c0,0.4,0.1,0.8,0.3,1c0.2,0.3,0.5,0.4,0.9,0.4c0.2,0,0.4,0,0.5-0.1c0.1-0.1,0.3-0.1,0.4-0.2c0.1-0.1,0.2-0.1,0.3-0.2
		c0.1-0.1,0.2-0.1,0.3-0.1c0.1,0,0.2,0,0.3,0.1c0.1,0.1,0.1,0.1,0.2,0.2l1,1.7c-0.5,0.4-1.1,0.7-1.7,1S105.6,34.9,104.9,34.9"/>
	<path class="st0" d="M115.2,16.1c0,0.3-0.1,0.6-0.2,0.8c-0.1,0.3-0.3,0.5-0.5,0.7c-0.2,0.2-0.4,0.4-0.7,0.5
		c-0.3,0.1-0.6,0.2-0.9,0.2c-0.3,0-0.6-0.1-0.8-0.2c-0.3-0.1-0.5-0.3-0.7-0.5c-0.2-0.2-0.4-0.4-0.5-0.7c-0.1-0.3-0.2-0.5-0.2-0.8
		c0-0.3,0.1-0.6,0.2-0.9c0.1-0.3,0.3-0.5,0.5-0.7c0.2-0.2,0.4-0.4,0.7-0.5c0.3-0.1,0.5-0.2,0.8-0.2c0.3,0,0.6,0.1,0.9,0.2
		c0.3,0.1,0.5,0.3,0.7,0.5c0.2,0.2,0.4,0.4,0.5,0.7C115.2,15.5,115.2,15.8,115.2,16.1 M114.7,34.7h-3.4V20.3h3.4V34.7z"/>
	<path class="st0" d="M124.5,20.1c0.9,0,1.7,0.1,2.5,0.4s1.4,0.7,2,1.3c0.6,0.6,1,1.2,1.3,2c0.3,0.8,0.5,1.7,0.5,2.8
		c0,0.3,0,0.5,0,0.6c0,0.2-0.1,0.3-0.1,0.4c-0.1,0.1-0.1,0.2-0.2,0.2c-0.1,0-0.2,0.1-0.4,0.1h-8.9c0.1,1.5,0.5,2.6,1.2,3.2
		c0.7,0.7,1.6,1,2.7,1c0.6,0,1-0.1,1.4-0.2c0.4-0.1,0.8-0.3,1.1-0.4c0.3-0.2,0.6-0.3,0.8-0.4c0.2-0.1,0.4-0.2,0.7-0.2
		c0.1,0,0.3,0,0.4,0.1c0.1,0.1,0.2,0.1,0.3,0.2l1,1.3c-0.4,0.4-0.8,0.8-1.3,1.1c-0.5,0.3-1,0.5-1.5,0.7c-0.5,0.2-1,0.3-1.6,0.4
		c-0.5,0.1-1.1,0.1-1.6,0.1c-1,0-1.9-0.2-2.8-0.5c-0.9-0.3-1.6-0.8-2.2-1.5c-0.6-0.6-1.1-1.4-1.5-2.4s-0.5-2.1-0.5-3.3
		c0-1,0.2-1.9,0.5-2.8c0.3-0.9,0.8-1.6,1.4-2.2c0.6-0.6,1.3-1.1,2.2-1.5C122.5,20.3,123.5,20.1,124.5,20.1 M124.6,22.6
		c-1,0-1.8,0.3-2.4,0.9c-0.6,0.6-0.9,1.4-1.1,2.4h6.5c0-0.4-0.1-0.9-0.2-1.3c-0.1-0.4-0.3-0.7-0.6-1c-0.3-0.3-0.6-0.5-0.9-0.7
		C125.6,22.7,125.1,22.6,124.6,22.6"/>
	<path class="st0" d="M142,23.1c-0.1,0.1-0.2,0.3-0.3,0.3c-0.1,0.1-0.2,0.1-0.4,0.1c-0.2,0-0.3,0-0.5-0.1c-0.2-0.1-0.4-0.2-0.7-0.3
		c-0.3-0.1-0.5-0.2-0.9-0.3c-0.3-0.1-0.7-0.1-1.1-0.1c-0.7,0-1.2,0.1-1.6,0.4c-0.4,0.3-0.6,0.7-0.6,1.1c0,0.3,0.1,0.6,0.3,0.8
		c0.2,0.2,0.5,0.4,0.8,0.6c0.3,0.2,0.7,0.3,1.1,0.4c0.4,0.1,0.8,0.3,1.3,0.4c0.4,0.1,0.9,0.3,1.3,0.5c0.4,0.2,0.8,0.4,1.1,0.7
		c0.3,0.3,0.6,0.6,0.8,1.1s0.3,0.9,0.3,1.5c0,0.7-0.1,1.3-0.4,1.9c-0.3,0.6-0.6,1.1-1.1,1.5c-0.5,0.4-1.1,0.8-1.8,1
		s-1.5,0.4-2.5,0.4c-0.5,0-1,0-1.4-0.1c-0.5-0.1-0.9-0.2-1.4-0.4c-0.4-0.2-0.8-0.3-1.2-0.6c-0.4-0.2-0.7-0.4-1-0.7l0.8-1.3
		c0.1-0.2,0.2-0.3,0.4-0.4c0.1-0.1,0.3-0.1,0.5-0.1c0.2,0,0.4,0.1,0.6,0.2c0.2,0.1,0.4,0.3,0.7,0.4c0.3,0.1,0.5,0.3,0.9,0.4
		c0.3,0.1,0.8,0.2,1.3,0.2c0.4,0,0.8,0,1.1-0.1c0.3-0.1,0.5-0.2,0.7-0.4c0.2-0.2,0.3-0.3,0.4-0.6c0.1-0.2,0.1-0.4,0.1-0.6
		c0-0.3-0.1-0.6-0.3-0.8c-0.2-0.2-0.5-0.4-0.8-0.6c-0.3-0.2-0.7-0.3-1.1-0.4c-0.4-0.1-0.9-0.3-1.3-0.4c-0.4-0.1-0.9-0.3-1.3-0.5
		c-0.4-0.2-0.8-0.5-1.1-0.8c-0.3-0.3-0.6-0.7-0.8-1.1c-0.2-0.4-0.3-1-0.3-1.6c0-0.6,0.1-1.1,0.4-1.7c0.2-0.5,0.6-1,1-1.4
		c0.5-0.4,1-0.7,1.7-0.9c0.7-0.2,1.5-0.4,2.3-0.4c1,0,1.9,0.2,2.7,0.5c0.8,0.3,1.5,0.8,2,1.3L142,23.1z"/>
	<rect x="16.9" y="20.3" class="st0" width="3.5" height="14.3"/>
	<rect x="38.9" y="20.3" class="st0" width="3.5" height="14.3"/>
</g>
<g>
	<defs>
		<path id="SVGID_3_" d="M150.3,17.8h2.5c0.6,0,1.1,0.1,1.5,0.2c0.4,0.1,0.8,0.4,1.1,0.6c0.3,0.3,0.5,0.6,0.6,1
			c0.1,0.4,0.2,0.8,0.2,1.3c0,1.1-0.3,1.9-0.8,2.5c-0.5,0.6-1.4,0.9-2.7,0.9h-2.5V17.8z M145.6,14.3v20.4h4.7v-6.8h2.5
			c1.4,0,2.6-0.2,3.7-0.5c1-0.3,1.9-0.8,2.6-1.4c0.7-0.6,1.2-1.3,1.5-2.2c0.3-0.8,0.5-1.8,0.5-2.8c0-0.9-0.2-1.8-0.5-2.6
			c-0.3-0.8-0.8-1.5-1.5-2.1c-0.7-0.6-1.5-1.1-2.5-1.4c-1-0.3-2.3-0.5-3.7-0.5H145.6z"/>
	</defs>
	<clipPath id="SVGID_4_">
		<use xlink:href="#SVGID_3_"  style="overflow:visible;"/>
	</clipPath>
	
		<linearGradient id="SVGID_5_" gradientUnits="userSpaceOnUse" x1="0" y1="39.6987" x2="1" y2="39.6987" gradientTransform="matrix(0 -16.8531 -16.8531 0 822.3135 33.3799)">
		<stop  offset="0" style="stop-color:#009245"/>
		<stop  offset="1" style="stop-color:#8CC63F"/>
	</linearGradient>
	<rect x="145.6" y="14.3" class="st6" width="15.4" height="20.4"/>
</g>
<g>
	<defs>
		<polygon id="SVGID_6_" points="176.4,14.3 176.4,22.8 168.2,22.8 168.2,14.3 163.4,14.3 163.4,34.7 168.2,34.7 168.2,26 176.4,26 
			176.4,34.7 181.2,34.7 181.2,14.3 		"/>
	</defs>
	<clipPath id="SVGID_7_">
		<use xlink:href="#SVGID_6_"  style="overflow:visible;"/>
	</clipPath>
	
		<linearGradient id="SVGID_8_" gradientUnits="userSpaceOnUse" x1="0" y1="39.6987" x2="1" y2="39.6987" gradientTransform="matrix(0 -16.8531 -16.8531 0 841.3444 33.3799)">
		<stop  offset="0" style="stop-color:#009245"/>
		<stop  offset="1" style="stop-color:#8CC63F"/>
	</linearGradient>
	<rect x="163.4" y="14.3" class="st7" width="17.8" height="20.4"/>
</g>
<g>
	<defs>
		<rect id="SVGID_9_" y="0" width="181.2" height="39.7"/>
	</defs>
	<clipPath id="SVGID_10_">
		<use xlink:href="#SVGID_9_"  style="overflow:visible;"/>
	</clipPath>
	<path class="st8" d="M20.6,16.1c0,0.3-0.1,0.6-0.2,0.8c-0.1,0.3-0.3,0.5-0.5,0.7c-0.2,0.2-0.4,0.4-0.7,0.5
		c-0.3,0.1-0.5,0.2-0.8,0.2c-0.3,0-0.5-0.1-0.8-0.2c-0.2-0.1-0.5-0.3-0.7-0.5c-0.2-0.2-0.3-0.4-0.4-0.7c-0.1-0.3-0.2-0.5-0.2-0.8
		c0-0.3,0.1-0.6,0.2-0.9c0.1-0.3,0.3-0.5,0.4-0.7c0.2-0.2,0.4-0.4,0.7-0.5c0.2-0.1,0.5-0.2,0.8-0.2c0.3,0,0.6,0.1,0.8,0.2
		c0.3,0.1,0.5,0.3,0.7,0.5c0.2,0.2,0.3,0.4,0.5,0.7C20.6,15.5,20.6,15.8,20.6,16.1"/>
	<path class="st9" d="M41.4,16.1c0,0.3-0.1,0.6-0.2,0.8c-0.1,0.3-0.3,0.5-0.5,0.7c-0.2,0.2-0.4,0.4-0.7,0.5
		c-0.3,0.1-0.5,0.2-0.8,0.2c-0.3,0-0.5-0.1-0.8-0.2c-0.2-0.1-0.5-0.3-0.7-0.5c-0.2-0.2-0.3-0.4-0.4-0.7c-0.1-0.3-0.2-0.5-0.2-0.8
		c0-0.3,0.1-0.6,0.2-0.9c0.1-0.3,0.3-0.5,0.4-0.7c0.2-0.2,0.4-0.4,0.7-0.5s0.5-0.2,0.8-0.2c0.3,0,0.6,0.1,0.8,0.2
		c0.3,0.1,0.5,0.3,0.7,0.5c0.2,0.2,0.3,0.4,0.5,0.7C41.3,15.5,41.4,15.8,41.4,16.1"/>
</g>
</svg>
