<?xml version="1.0" encoding="utf-8"?>
<!-- Generator: Adobe Illustrator 19.0.0, SVG Export Plug-In . SVG Version: 6.00 Build 0)  -->
<svg version="1.1" id="Layer_1" xmlns="http://www.w3.org/2000/svg" xmlns:xlink="http://www.w3.org/1999/xlink" x="0px" y="0px"
	 viewBox="0 0 703.3 1202.8" style="enable-background:new 0 0 703.3 1202.8;" xml:space="preserve">
<style type="text/css">
	.st0{fill:#C5669E;}
	.st1{fill:#FBB03B;}
	.st2{fill:#D4145A;}
	.st3{fill:#F79C7C;}
	.st4{fill:#A952A5;}
	.st5{fill:#DD437B;}
	.st6{fill:#FABE78;}
	.st7{fill:#E5729C;}
	.st8{fill:#00A99D;}
	.st9{fill:#22B573;}
	.st10{fill:#F15A24;}
	.st11{fill:#F47B50;}
	.st12{fill:#B1337D;}
	.st13{fill:#9E005D;}
	.st14{fill:#338DC9;}
	.st15{fill:#0071BC;}
	.st16{fill:#662D91;}
	.st17{fill:#93278F;}
	.st18{fill:#AB3DA0;}
	.st19{fill:#29ABE2;}
	.st20{fill:#F7931E;}
	.st21{fill:#8557A7;}
	.st22{fill:#4EC48F;}
	.st23{fill:#FCC062;}
	.st24{fill:#F9A94B;}
	.st25{fill:#A381BD;}
	.st26{fill:#FFFFFF;}
	.st27{font-family:'OpenSans-Bold';}
	.st28{font-size:14px;}
</style>
<path id="PH-SUR_1_" class="st0" d="M656.5,851.5l2.3,1.6l0.7,0.3l-0.9,0.8l-1.7-0.4l-1.9,1.1l-0.1,1.1l1.7,1.7l1-0.4l1.2,2.3l2-1
	l-0.3-1.2l1.1-0.7v1.7l-1.3,0.9l1.2,2.2l2.5,5.1l-1,0.1l3.1,2.4l5.1-1.6l3.6-3.8l2.8,0.1l-1.2,1.4l0.5,1.3l-1.7,5l0.4,3.1l-1.5,4.2
	l2.3,2.1l0.5-1.1l2.9,5l2.8,2.9l1,0.3l1.3,1.5l0.2,1.6l-1.4,0.7l2.5,0.6l-1.3,2.8l2,2.9l-1.5,0.3l0.9,0.8l-2,1.4l0.2,1.6l-3.6,0.8
	l-1.2,0.8l-0.1,1.6l-1.8,0.6v1.5l2.4,1.2l-4.2-0.2l-6,3.5l-1.6,2.8l3.1,2.1l-0.8,1.2l2.2,2.6l1.5-0.1l-0.3-0.8l4.3,1.3l0.4-0.7
	l-2.8-1.3l1.6-0.6l3.9,0.5l2,1.5l1.8-0.7l1.7,0.6l1.2-1.3l0.7,0.8l-0.8,1.3l2.9,0.2l0.4,1.7l-1,0.7l1,1.1l-2.5-0.3l-1.1,3.2l1.8-0.2
	l0.5,1.6l-1.7,3l-2.7,0.9l1.3,1.6l-0.8,0.3l0.2,1.2l3.3,0.3l1,1.3l-5.4,4.7l2.1,3.2l3.4-1.4l3.6-3.2l1.2,0.2l-2,9.6l1.7,1l-2.7,3.2
	l0.5,3l-1.2,0.3l0.7,1.8l2.5-0.2l-3.1,2.5h-1.4l-2,3.2l0,0l-0.7-6.6l0,0l-0.4-3.7l-3.3-1l4.3-4.2l-4.8,0.5l-4.4-4.2l-1.9-0.3l1-3.8
	l3.7-4.2h1.4v-1.7l-1.7-2.1l0.9-4.6l-1.5,2.1l-5.8,0.4l-5.9-0.7l-2.8-2.7l3.5-3.9l-4.8,0.5l-1.2-7.6l-1.8-0.1l-0.2-1.1l-0.4-4.7
	l1.7-1.2l-0.3-0.8l-3.1-4.7l-1.6-5.7l-3.6-4.1l-1.5-14.2l-3.2-5.5l-5.8-6.7l0,0l-0.5-6.5l0,0l12.3-12.5l0,0L656.5,851.5L656.5,851.5
	z"/>
<path id="PH-TAR_1_" class="st1" d="M271.4,381.3l3,12.6l3.1,3.3l4.1,1.1l-2.3,4.2l3.1,9.9l-1.6,2.6l-0.2,3.3l3.1,2.4l-0.7,2.9l0,0
	l-2,0.3l-0.2-1.2l-3.1,1.7l-3-1l-1.4,0.9h-4.7l-13.4,7.1l-1.3-0.2l0,0l-2.4-4.8l-3.8-4.2l-8.9-5.3l1.6-11l2.6-5.1l3-1.8l-0.7-1.4
	l0,0l5.1-2.4l-0.5-1.4l2.6-2.2l0.5-2.4l2.5-2.7l6.4,2.7l4.9-3.1l2.9-8.9L271.4,381.3z"/>
<path id="PH-TAW_1_" class="st2" d="M184.9,1193.9l-1.4,7l-0.6-2.5l1-1.9l-1.4-1.2l2.4-3.2V1193.9z M214.4,1189.7l3,2l-3.8-0.2
	l-0.5-1.4L214.4,1189.7L214.4,1189.7z M187.5,1183.1l2.8,5.7l0.9,5.4l-1.8,6.7l-1.7,1.9l0.5-10.8l-1.5-8.1L187.5,1183.1
	L187.5,1183.1z M212.6,1182.3l3.6,1.9v2.6l-3.6,0.5l-1-4.3L212.6,1182.3z M228.3,1176.1l-0.9,3.5l-1.4,0.3l0.2-3.5L228.3,1176.1
	L228.3,1176.1z M210.8,1174.6l-0.4,1.4l-2.6-0.2l0.3-1.4L210.8,1174.6L210.8,1174.6z M235.8,1174.7l1.1,0.7l-0.2,1.2l-2.6-2
	L235.8,1174.7L235.8,1174.7z M243.2,1175l-0.7,0.7l-2.1-0.6l1.8-1.6l1.4,0.8L243.2,1175L243.2,1175z M213.1,1168.2l0.5,4.3l-1.1,0.5
	l-0.8-0.9l-0.4,1.7l-3.2,0.5l1.9-4.6L213.1,1168.2L213.1,1168.2z M249.4,1167.9l0.6,1.5l-1.2,0.8l-2.6-0.1L249.4,1167.9
	L249.4,1167.9z M252,1166.1l-0.6,1.9l-1.1-0.4l0.1-2.2l1.1-0.5L252,1166.1L252,1166.1z M249.4,1162.7l-2.6,1.5l-0.4-1l-1.6,0.3
	l1.7-5.2l2.8,2.4L249.4,1162.7L249.4,1162.7z M253.2,1158.2l-1.5,5.4l-0.7-2.9L253.2,1158.2z M242.2,1151.6l0.3,3.4l2.8,1.9
	l-1.7,3.1l0.6,3.7l-1.5,2.5l0.3,1.7l-4.2-1.5l2-2.8l-1.7-0.7l-0.9,2.2l-2.6-1.7l-1.8,2.6l-0.8-0.7l-0.9-0.5l-1.1,0.4l-0.2-1.3
	l-1.2-0.1l-3.2,1.9l0.3,1.7l-0.7,0.6l-2.2,3.3l-2.2-0.8l-3,1.7l-0.6,0.3l-1.5,0.9l-2.9-0.6l0.4-4l-1-1l1.4-1.8l2,0.2l6.1-3.1
	l2.8-3.5l3.6,0.4l2.9-2.8l0.6-0.7l6.9-4.5L242.2,1151.6L242.2,1151.6z M249.9,1148.9l1.3,0.3l-1.7,1.2l-1.7-0.5L249.9,1148.9z
	 M270.1,1147.8l-1.8-0.8l0.7-1.8l1.9,1.7L270.1,1147.8z M118.5,1028.3l1.5,1.5l-1.3,2.6l1.9,2.1l-7.6-1.8v-1.3l-1.6-1l3.3-1.2
	l1.7,0.6L118.5,1028.3z"/>
<path id="PH-ZMB_1_" class="st3" d="M218.8,383.2l1.8,0.9l2.6-1.2l0.7,1.4h2.3l2.8-4l4.1,2.6l4.6-1l2.7,7.3l4.9,8.1l0,0l0.7,1.4
	l-3,1.8l-2.6,5.1l-1.6,11l8.9,5.3l3.8,4.3l2.4,4.8l0,0l-0.9,2.4l0.6,2.3l2.8,2l1.3,2.6l-0.1,4l2.2,2.1l0.7,2.5l0,0l-1.8,3.6
	l-4.4-0.7l-1.3,3.1l-4,3.2l-0.5,0.4l0.2-1.2l-1.9-0.3l-0.3-1.9l-1.7-0.1l-1.4-2.3l-1.6,0.9l0.9,3.7l-2.6,5.6l-4.6-1.6l1.4-0.3
	l-1.1-1.3l-2.7-0.3l1.9-2.6l-2.2,0.6l0.4-3h-1l0.1-1.9l-1.4-1.3l1-9l-0.9-6.4l-3.1-9.9l0.3-2.4l-2-2.5l-1.7-2l0.1-1.6l-2.7-2.9
	l0.6-0.4l-2.3-0.7l0.1-1.3l-1.3-1l2-1.3l-1.1-1.7l0.3-1.6l1,1.2l1.8-0.1l0.2-1.4l1.6-0.8l-2.3-3.6l0.9-1.3l-1.5,0.1l0.1,1.2
	l-0.9-0.3l0.6-2.6l-1.5-2l1.6-1.6l0.6-3.7l-1.2-1L220,391l-2.3-2.5l3-1.5L218.8,383.2L218.8,383.2z"/>
<path id="PH-ZAN_1_" class="st4" d="M473.2,906.2l3.2,0.8l1.1,2.4l3.6-1.3l0.5,1.4l-1.6,1.8l0.2,1l1.8,1.5l1.6-0.8l0.1,0.9l1.4-0.1
	l0,0l-0.4,29.6l0,0h-12.1l-2.5-1.2l-10.7-0.6l-0.5,9.7l-1.9,4v4l-6.5-0.2l-8.4,6.1l-3.4-0.3l0,0l-11.8-1.8l-6.6,1l-8.1,3.8l-7.3,6
	l-6.8,3.3l-5.9,8.8l-3.4,7.2l-0.8,5l0,0l-3.6,7l-0.2,6.6l-1.5,4l-5.4,5.1l-12.4,0.2l0,0l5.2-7.5l2.4-1l0.4-1.2l3.7-1.1l0.1-1.4l-2-1
	l-0.5-2.3l2-3l-0.1-3.4l2.6-3.6l-1.2-2l2.1-0.1l3-3.6l-0.6-1.1l-0.9,0.6l-1.3-1.1l2.1-3.2v-2l-1.3-4l-2.3-1l1.3-1.9l0.6,1l0.9-0.6
	l-0.3-1.5l0.1-1.8l1.5-0.4l1.4-3.8l4.8-3.6v-3.8l8.6-5.7l8.5-2.5l3.5,0.5l5.3-1.3l3.3-2.2l2.4-3.6l1.8,3l2.5,0.7l6.8-0.7l3.4-1.9
	h3.9l6-4.9l-0.1-2.6l-2-0.8l-2.2-3.4l3.4-1.5l-0.2-6.3l2.1-1l1.6-4.5l2.4-1.8l8.6-1.3l6.3,1.5l2.2-0.5l2.2-3.2l1.4-5.3l1.5-0.6
	l1.6,1.4l1.6-0.6l0.4-2.1l-1.6-0.9l-0.3-0.6l-1.1-1.5v-1.6L473.2,906.2L473.2,906.2z"/>
<path id="PH-ZSI_1_" class="st5" d="M391.8,1031.9l0.6,0.7l-0.5,2.3l-3.1-0.5l0.5,1.1l-2.7,2.2l1.1-2.8l-0.6-0.7l1.2-1.5l1.4,0.6
	L391.8,1031.9L391.8,1031.9z M440.1,1002.7l0.7-0.5l-1.2-1.4l-2.2-1.1l-0.9,1l0.3,3.5l-0.9,0.7l-3-4.8l-2.5,0.9l-1.1,5.6l1.6,0.6
	l-0.3,3l1.9,1.4l1.2-2.2l3.8-0.8l1.4-2.1l2.2,0.7l-1.8-2.4l3.7,0.6L440.1,1002.7L440.1,1002.7z M450.9,972.9l-12.3-1.6V965
	l-11.8-1.8l-6.6,1l-8.1,3.8l-7.3,6l-6.8,3.3l-5.9,8.8l-3.4,7.2l-0.8,5l-3.6,7l-0.2,6.6l-1.5,4l-5.4,5.1l-12.4,0.2l-0.3,5l2.9,8.2
	l12.4,5.6l3.1-1.4l0.4-1.2l2.1-2.1l2-6.1l0.1-0.9l-0.6-1.5l3.8-3.1l-0.1-1.3l-1.1-0.1l1.4-2l-1-2.2l1.3-0.4l-0.2-0.7l0.3-1.7l1-0.3
	l0.8-6.5l2-1.1l0.8,0.5l-0.2,1.6l1.1-0.5l3.8-5.5l-3.5-0.5l0.9-4.8l-0.1-0.1l3.4-1.8l1.4-1l1.9-2.2l1.4-0.3h1.3l0.2-1.8l1.4-1.2
	l-4,0.9l-1.3-0.3l-0.2-1.1l4.3-3.2l-0.5-1.5l2-2.8l1.2-0.2l1.3-3l5.5-1.8l0.3-1.2l1.1,0.4l1.3-1.3l1,1.7l1.5-1.6l1.9,0.3l1.9,2.5
	l1.6-0.9l3.2,1.3l0.5,2.3l-1.5-0.9l-0.2,1.5l-1.1,2.1l1,2.7l-0.7,1.7l0.2,1.7l1.7,0.9l0.8,2.9l-0.8,1.3l-1-1.7l-0.7,0.5l-0.7,3.8
	l0.1,1.2l1.4-1.4l1.3,0.8l-0.3,3.2l1.3-0.9l0.7,0.8l2.4-2.1v-1.6l-1.4-0.6l2.1-1l0.3-2.3l1-0.3l1.2,0.5l2.2,4.2l1.6-0.5l1.4,2.2
	l0.9-1.6l-0.5-1.5l2.8-5.7l-0.6-3.5h2.3l-0.3-1.9l0.5-0.6l0.1-1.4l1.6,0.2l1-2.1L450.9,972.9L450.9,972.9z"/>
<path id="PH-ABR_1_" class="st6" d="M294.3,219.5l4.3,2.9l1.7,7.3l4.1-0.3l2.4,1.8l1.7,10.6l0,0l-2.3,1.3l2,5.9l-0.7,2.1l-8.1,5.3
	l-0.3,6.2l-5.8,12.2l0,0v2.6l-1.3,1.7l-2.9,0.2l0,0h-4.3l-3.1,2.3l-4.5-0.2l-2-2.5l1-0.4l0.1-4.3l-5-4.1l-4.1,0.2l-1.4-3.8l2.9-5.5
	l0.5-3.5l-4.4-1.8l-3.1,1.4l-1.1-1.6l1.5-3.3l1.1-7.2l2.4-4.9l0,0l3.4-7.2l7.9-2.7l2.7-4.4l4-1.4l3.6-3.7l5.6,0.7L294.3,219.5z"/>
<path id="PH-AGN_1_" class="st5" d="M622.8,854.1l2.7-1.2l5.2-0.2l9.1,1.7l3.9,3.3l0.5,4.9l0,0l0.5,6.5l0,0l0.9,5.2l-1.5,6.6
	l-3.7,6.4l-1.9,5.6l0.1,3.2l-2.3,4.1l2.5,8.1l-12.9-0.2l-4.3,3h-14.2l0,0l-0.8-14.3l1.7-1.4l-2.6-3.6l1.2-2.5l-2.2-9.9l0,0l1,0.4
	l1.3,4.1l3,2.8l3.8,0.1v1.6l0.6-1.5l6.3,1l6.7-2.9l-0.6-0.9l1.7-3.2l-1.2-5.1l0.8-3.8l-1.8-3.7v-3.7l-3.2-6.5L622.8,854.1z"/>
<path id="PH-AGS_1_" class="st7" d="M644.7,869l5.8,6.7l3.2,5.5l1.5,14.2l3.6,4.1l1.6,5.7l3.1,4.7l0.3,0.8l-1.7,1.2l0.4,4.7l0.2,1.1
	l1.8,0.1l1.2,7.6l4.8-0.5l-3.5,3.9l2.8,2.7l5.9,0.7l5.8-0.4l1.5-2.1l-0.9,4.6l1.7,2.1v1.7h-1.4l-3.7,4.2l-1,3.8l1.9,0.3l4.4,4.2
	l4.8-0.5l-4.3,4.2l3.3,1l0.4,3.7l0,0l-13.7,0.1l0,0l-6.8,3l-1.7,1.8l-3.5-2l-1.2-2.6h-22.2l0,0l-21.3,0.9l0,0l-0.5-2.9l0.9-3.8
	l-1.4-1.6l0.3-3.8l-1.4-3.1l0.8-3.1l-1.4-1l-1-3.6l-3.8-2.7l-1.2-2.5l-1.5-15.4l0,0l-0.1-5.7l0,0h14.2l4.3-3l12.9,0.2l-2.5-8.1
	l2.3-4.1l-0.1-3.2l1.9-5.6l3.7-6.4l1.5-6.6L644.7,869z"/>
<path id="PH-AKL_1_" class="st8" d="M369.1,670.8l8.8,7.3l6,0.9l2.5,1.4l1.8-0.5l1.2,2l1.4-0.6l3.7,4.4l2.3-0.1l1.7-0.1l-0.6,2
	l2-1.1l2.5,4.3l5.6,4.6l-1,0.8l-4.9-4.9l-2,0.8l2.3,2l0.1,2.3l1.6,0.3l0.4-1.5l0.9,2.1l-1.3,0.1l0.6,1.7l2.1,0.1l1.1-3l3.1,1.2
	l2,0.9l-2,0.7l2.7,0.5l0,0v1.2l-4.7,4l-8.4,0.1l-1.8,3.2l-1.5-0.3l-1.4,4.1l-2.1,2.3l-2,1.6l-5.2,1.1l0,0l-1.3-2.2l0.6-3.2l-1.6-0.9
	l-0.2-3.1l-2.2-2.4l1.4-4.4l-1-1.8l0.7-2.8l-0.6-3.6l2.7-5.5l-1.2-2.9l-12.7-5.1l-3.9,0.5l-3.2,3l-3.3,1.3l0,0l2.7-3.9l0.3-6.2
	l4.4-1.3L369.1,670.8L369.1,670.8z M366.5,666.2l0.5,2.5l1.4,0.8l-0.5,1.1l-2.6-3.6L366.5,666.2L366.5,666.2z"/>
<path id="PH-ALB_1_" class="st3" d="M526.7,574.8l5.4,1.8l1,2.7l-8.1-0.9l-3.4-1.5L526.7,574.8L526.7,574.8z M515.6,571.5l0.6,1.5
	l1.3-2l1.9,2.1l1.1-1.5l4,1.5l-2.4,0.5l0.4,1l-3.5,1.6l-2.2-0.7l-0.1-0.9l-3,0.3l-2.6-2.2l0.5-1.1l-1-0.6l4.5,0.5L515.6,571.5
	L515.6,571.5z M506.7,566.1l5.5,1.9l-3.3,3.5l1.8,3.1l-1.9,1.1l-0.9,0.1l-0.2-2.3l-0.7-0.1l-1.5-1.4l1.7-3.1l-1.6-1.5L506.7,566.1
	L506.7,566.1z M500.3,562.1l3,1l1.5,1.9h1.8l-1.2,1.9l-2.5-1.5L500.3,562.1L500.3,562.1z M488.6,554.1l1.4,1.8l3.8,1l5,11.6l4.9,2.4
	l1.3,1.6l2.5,2l-0.4,1.2l-4.4-1l-2,0.7l-1.5,4.4l0.2,1.8l2.1,2.3l-0.7,1.8H499l1,1.1l-0.9,0.7l3.7,1.3l2.4-2.6l0.2-2l1.3,0.1
	l0.5-1.9l1.2-0.6l4.4,1.9l0,0l-2.6,5.7h-3.4l-6.5,4l-2.5-2.8l-4.6-0.2l-3,1.2l-4-1.5l-6.8,3.1l0,0l-2.1-2.7l-3.3-1.6l-6.2,3
	l-1.7-3.6H465l1-2.1l-0.5-4.7l1.6-1.4l-0.4-1.5l1.7-0.7l-3.7-4.8l0,0l8.1-5.8l1.2,0.7v-1.1l2.2-1.2l1.9-0.6l2.1,0.7l6.8-2.8l0.3-3.2
	l-3.1-4.7l0.8-1.1l3.4-0.3l0,0L488.6,554.1L488.6,554.1z"/>
<path id="PH-ANT_1_" class="st9" d="M360.8,683.7l3.3-1.3l3.2-3l3.9-0.5l12.7,5.1l1.2,2.9l-2.7,5.5l0.6,3.6l-0.7,2.8l1,1.8l-1.4,4.4
	l2.2,2.4l0.2,3.1l1.6,0.9l-0.6,3.2l1.3,2.2l0,0l0.1,7.2l0.6-0.4l0.4,3.5l1.7,2.4l0,0l5.9,8.2l-0.5,5.2l0.8,1.7l-2.1,0.5l-1.1,2.6
	l-1.3-0.2l-4.4,4.5l-1.9,5.7l-7.4,4.8l-2.9,4.9l-0.9,3.6l-0.8,5.9l0.2,1.4l1.2,0.5l0,0l-5,4.5l-3.6-3l0.2-4.3l3.2-3.4l1.5-8.5
	l-0.9-3.6l-3.1-3.5l2-3.4l2.5-8.8l5.1-7.5l-1.5-11.6l1.4-2.5l-0.1-2.7l-1.8-2.8l2.3-3.1l-0.4-9.2l1.6-0.8l0.8-1.7l-0.5-3l1.7-7.7
	l-0.2-4.3l-2.6-2.7l-1.4,0.8l-9.2-2.6l-2.4,0.8L360.8,683.7L360.8,683.7z M331.1,675.9l5.7,0.4l1.3,1.2l-1.1,1.4l-5.7-1.2l-1.6,0.6
	L331.1,675.9L331.1,675.9z M339.8,669.1l1.7,1.8l0.4,2.2l-2.2,1.1l-1-0.9l-0.2-3.4L339.8,669.1L339.8,669.1z M325.2,657.5l2.4,0.3
	l1.7,5.3l1.3,0.8l-2.8,3.5l-2.4-5.2l1.9-1.2l-2.7-1.3L325.2,657.5z"/>
<path id="PH-APA_1_" class="st10" d="M296.7,183.9l3.1-1.5l2.6-3l0.3-1.8l3-0.9l0.3,4.2l11.6,4.2l2.7,3.1l2.4,0.1l10.8,6.1l1.6,6.2
	L333,214l-3.3,1.5l-6.6,15.5l-1.2,0.7l5,1.8l4,4.4l0.8,3.5l0,0l-3.2,1.9l-0.7,1.8l-9.8-2.2l-1.9,3.5l-7.6-4.5l0,0l-1.7-10.6
	l-2.4-1.8l-4.1,0.3l-1.7-7.3l-4.3-2.9l0,0l0.9-1.4l-0.3-7.8l2.9-5.1l-1.2-2.4l-1.2-12.9L296.7,183.9z"/>
<path id="PH-AUR_1_" class="st10" d="M391,329.9l-1.2,0.7l-1.1,3.7l-2.1,1.8l1.7,3.4l1.2-3l0.3,0.7l-1.4,4.8l-2.4,1.6l-0.9,2.4
	l1.1,1l3.1-1.7l-2.3,3.3l-0.1,2.1l-9.8,9.1l0.2,2.2l-3,3.1l-3.1,1.6l2.8-5.6l4.8-4.8l0.1-2.7l2.5-1.6l0.2-2.7l-2.7-0.2l-1.6,1.7
	l-0.5,1.9l1.1,2l-4.3,0.8l-6,4.1l-4.8,0.3l-6.6,4.5l-1.4-1.1l-1.3,0.6l-5.6,4.8l-1,2.6l-1.7,0.3v1.1l-5.2,4l-0.1,8.3l1.3,2.7l2-0.8
	l2.8,1l0.2,3.4l-2.1-0.2l0.1,1.7l0.1,1l0.2,1.7l-2.4,1.2l-3.9,6.5l-2.7,1.6l-1.3,8l-1.5,0.5l-1.6,3.5l-2-1.6l-1.4,1.5l-0.8,3.9
	l3.3,7.3l0,0l-1.3,1.1l0.2,1.6l-1.7,0.5l1.3,1.3l-0.1,2.2l-4.1,6.1l0.7,1.9l-0.7,1.6l0,0l-2.2-15.1l0,0l4.7-21.2l-6.9-21.5l0,0
	l13.5-11l0,0l26.7-23.4l16.7-19.5l4.8-3.2l0,0l10.2,0.5l0,0L391,329.9L391,329.9z"/>
<path id="PH-BAN_1_" class="st10" d="M260.4,448.8l2.7,1.4l0.4,3.2l1.6,2l1.9,1.2l1.9-0.5l0,0l0.3,1.2h-1.8l0.1,2l-0.8-0.1v4.8
	l2.6,5.6l-0.3,2.7l1.6,5.6l0.9,0.4l-0.3,4.1l-3.3,4.1l-5.4-0.9l0.8,2.2l-2.2-0.6l-1.7-2.4l-1.6,0.4l-0.1-0.9l-2.4-0.4l-1.1-4.9
	l1.1-0.9l-0.7-0.9l0.9-2.9l-1.9-2.9l-1.4,0.5l-1.2-1.2l-1.4,0.8v-1l-0.8,0.4l-3.9-4.3l0.4-3.2l1.8-0.1l-2.8-1.9l2.8-1.4l-1.8-0.6
	l0.7-1l2.1,0.1l0,0l4.6-3.6l1.3-3.1l4.4,0.7L260.4,448.8L260.4,448.8z"/>
<path id="PH-BTN_1_" class="st1" d="M360.9,37.9l3.2,3.6l-2,3.8l-1.6-2.1L360.9,37.9z M372.4,27.6l2.3,1.9l-5.2,4l1.3,1.6l-0.5,1.9
	l-1.7,1.5h-2.5l0.8-4.8l2.9-2.8l-0.7-1.8C369,29.1,372.4,27.6,372.4,27.6z M362.2,1l1.4,1.9l-1,2.1l0.6,1.9l-1.4,0.6l-0.8,2.9
	l-3.3,1.9l-1.4-2.5l2.3-3.1l1.6-4.9L362.2,1L362.2,1z"/>
<path id="PH-BTG_1_" class="st11" d="M305.7,549.8l1,2.9l-1.4,0.6l-2.8-3.4l1.4,0.6L305.7,549.8z M287.2,541.2l2.1,1.8l5,0.5
	l1.4,1.4l-3,1.1l-2.3-0.7l-2.3-1.2L287.2,541.2L287.2,541.2z M270.2,501l1.9,0.7l0,0l4.4,1.4l-0.7,1.8l2.5,2.7l4.3,0.2l5.3,3.7
	l0.5,2.1l2.9-1.8l1.1,0.6l4.1-1.1l6.8-3.8l-0.6-0.7l0,0l4.7-0.2l6.3,1.8l1.6,7.8l1.9,2.9l1.3-0.2v2l0,0l0.3,1.8h-1.5l-0.5,1.2
	l2.5,3.5l7,0.5l1.1,1.5l5.2,2.2l0,0l-1.8,4.3l1.2,3.1l-0.5,1.8l1.2-0.3l0.7,1.2l-3.4,2.2l-2.8-1l-7.1,5.3h-1.8l-2-2.2h-2.2l-1.4-1.3
	l-7.6,1.9l-3.1-1.1l1.2-2.4l0.6-4l-0.7-1.2l-1.1-2.1l-2.6-1.3l-2.7,0.7l-5.2,6.7l-1.4-2.7l3.9-3.2l-1.9-4.4l1-0.6l-0.2-3.5l-2.2-1.8
	l-6.6-2l-3.5-0.6l-2.5,1.1l-0.7,2.1l1.8,2.6l-0.3,1.2l-4.7-1.4l-0.1,2.2l1.8,3.1l-1.4,1.5l-2.6-3.2l0.7-0.8l-1-0.9l0.1-8.8l-1.2-1.5
	l2-0.2l-1.2-4.2l0.7-1.7l-0.3-4.5l-3.8-1.6l1.5-0.5l1.7-0.1l-2.7-1.9l2.9-0.5l-2.2-1.2L270.2,501L270.2,501z"/>
<path id="PH-BEN_1_" class="st10" d="M283.2,298.4l5,4.7l0.8,2.6l1.7,0.8l0,0l1.4,3.6l0.5,13.9l0,0l-1.6,6.8l0.5,5.4l-3.3,8.5
	l-2.9-0.2l-3.4,6l0.7,3.1l0,0l-8.2,1l-10.4-3.7l0,0l-3.1-19.6l2-3.3l4.5-4.2l-1.2-0.8l2.8-3.9l0,0l2.9-5.4l1.7-12.4l2-1.1l5.2-0.2
	L283.2,298.4z"/>
<path id="PH-BIL_1_" class="st8" d="M548.2,687.8l2.9,0.1l5.1,2.2l3.3,7.8l2.5,1.9l-0.8,4l-2,1.2l-4.8,0.2l-0.6-0.8l-1.7,1.2
	l-2.7-1.8l-1.5-3.9l-1.2,0.3l-1.1-1.7l0.3-2.6l-2.8-3.6l0.3-1l-1.1-0.9l2.1-1.7L548.2,687.8L548.2,687.8z M540.7,679.9l2,0.8
	l-0.2,2.2l-1.7,1l-2.4-2.1L540.7,679.9L540.7,679.9z"/>
<path id="PH-BOH_1_" class="st9" d="M505.5,839.1l2.5,1.3l-0.2,1.6l-5.1,3.8l-3.4,0.4l-0.4-2.2l-2.1-0.9L505.5,839.1L505.5,839.1z
	 M501,821.1l1.2,0.3l-2,1.8l-0.5-2.1H501L501,821.1z M504.5,819.6l2.8,0.3l-1.9,1.6l-2-1.6L504.5,819.6L504.5,819.6z M562.1,801.9
	l-2,3.1l1-0.2l0.1,1.9l-3.2-0.3l-0.6,2.7h-1.3l-0.6-1.9l0.9-1.5l-1,0.3v-1.5l2,0.3l0.2-1.4l1.5,1.6l0.4-2l0.8-0.5L562.1,801.9
	L562.1,801.9z M538.4,800.4l3.6,2.5l0.1,1.8l2-2.9l1.7,1.7l0.2,1.8l1.6,0.3l4.7,3.3l1.8-1.5l3.1,2.6l1.1,3.3l-1.2,0.4l0.7,4.4
	l-1.3,0.5l2.8,0.8l-1.2,2.9l-3.3,1.7l6,3.2l-0.5,3.8l-1.4,1.5l-3.7,0.8l-1.7-2.9l-0.9,0.1l-2.7,2.9l-2.8,0.8l-0.7,4.2l-10.3,4
	l-5.2-0.9l-9.3,1.5l-15-3.3l-0.7-2.3l1.9-3.7l-0.5-0.5l-1.8-1.3l-3.7,0.2l-0.2-3.9l1.5-2.9l-1.4-1l0.1-1.2l2,0.6l-0.4,1l1.9-1.5
	l0.3-1.7l2.3-0.9l-0.4-1.1l1-1.3l0.8,1.2l5-3.3l4.8-0.8l1.2-1.5l1.4-5.8l2.7,0.1l3.9-6.4l9.1-0.1L538.4,800.4L538.4,800.4z
	 M530.7,800.1l0.6,0.5l-1,1.3l-1.4-0.7L530.7,800.1L530.7,800.1z M536.2,797.9l-1.8,2.1h-2.1l-0.6-0.7L536.2,797.9z M529.7,797.6
	l1.1,1.1l-2.5,0.5L529.7,797.6z"/>
<path id="PH-BUK_1_" class="st12" d="M558.3,942l1.2-2.1l-0.3-2.3l0.9,0.4l1-1.1l-0.4-2.7l1.2-1.8l0.2-4.2l14.4,0.2l-0.2-3.8
	l3.9-8.7l11.7,1.1l15.7-0.3l0,0l1.2,15.4l1.2,2.5l3.8,2.7l1,3.6l1.4,1l-0.8,3.1l1.4,3.1l-0.3,3.8l1.4,1.6l-0.9,3.8l0.5,2.9l0,0
	l2.8,5.4l-0.2,6.9l1.8,3.8l-0.9,8l-2.4,2.4l-2.1-1.2l-3.3,0.8l-1.5-1.5l-3.5,0.4l-0.1,4.7l0,0l-2.3-0.9l-0.2,1.6l-1.7-0.1l-2,3.6
	l-0.8,4.2l-6.4,1l-1.3,3.4l-5.5,0.4l-3.2-2.3l-3.5,1.2l-0.1-1.2l-2.8-1.3v-2.1l-1.6-1.2l-2.1,1.1l0.8-2.7l1.8-1.8l-1.3-4.5l0,0
	l-0.3-1.4l-3.5-2.2v-1.9l-1.8-1.6l-0.1-3.1l-1.4-0.7l-3.5-6l-2.1-0.8l-1-1.8l0.5-1.5l-1.9-1l-3-5.7l-1.8-7.9l-2.7-3.3l0,0l4.7-1.5
	l1.1-2l-1-1.7L558.3,942z"/>
<path id="PH-BUL_1_" class="st3" d="M296.3,427.3l4.8-2.6l8.9-1.5l7.1,5.1l5.1,0.4l0,0l2.2,15.1l0,0l0.2,7.8l0,0l-6.3,3.8l-5.5,1.1
	l-0.4,1.7l-4.6,3.3l0,0l-2.9-0.3l-1-1.3l-1.1,0.3l-0.3,1.6l-2.4,0.6l0,0l-0.3,0.3l0,0l-1,2.4l-1.4,0.2l-0.3-1.4l-1.4-0.6l-0.9,0.4
	l1.6,3.2l-0.9,0.5l-1.3-1.6l-0.8,0.8l0,0l-1.4-1.5l-0.9,0.2l-3.3-2.4l0.1-1.9l-1.1-0.4l-0.5-0.5l-1.2,1.8l-3.2-0.1l-1.3-0.5l-4-0.5
	l-0.4-0.9l2.3-1.3l-0.3-1.4l3.2-5.1l-0.1-2.4l6.4-0.6l4.7-3.8l-0.2-2l1.5-0.3l0.2,1l1.3-3.1l2,0.1l0.2-3.3l1.2-1.7l-3.2-4l1-1.6
	L296.3,427.3L296.3,427.3z"/>
<path id="PH-CAG_1_" class="st1" d="M381.8,173.6l1.7,0.2l-0.2,4.4l-2.8,1.6l0.8-3.5l-1.1-0.2l0.1-1.1L381.8,173.6L381.8,173.6z
	 M308.6,170.1l5.3,1.5l7.7,6.2l6.5,3.1l1.3,0.6l0.6,1.5l2.7,0.4l11.1,6.3l20.7,7.7l0.6,0.7l8-2.1l5.8-5.2l0.7-2l2.1,0.1l-0.4-3.2
	l1.6-6.3l1.4-1.1l5,0.4l1,5.1l4.7,4.4l1.8,6.4l-2.6,6.9l-2.9,3.7l-3.4,1.3l-3.6,5.3l0.2,1.3l1.2,0.3l-0.8,2.1l1.1,1.2l-0.9,5
	l0.5,0.6l0.3,3.2l-1.9,1.9l0.4,2.4l-1.4,0.8l0.5,1.4l-1.4,1.8l0.5,4.1l1.8,3.1l-0.9,1.2l0.8,1l-0.3,4.4l2,4.8l0,0l-24.6,1l-2.2,1.3
	l-12,0.7l0,0l-12.9-12.7l-2.9,0.5l0.2-1.8l0,0l-0.8-3.5l-4-4.4l-5-1.8l1.3-0.7l6.6-15.5l3.3-1.5l2.1-13.4l-1.6-6.2l-10.8-6.1
	l-2.4-0.1l-2.7-3.1l-11.6-4.2l-0.3-4.2l-3,0.9l-0.3,1.8l-2.6,3l-3.1,1.5l0,0l0.9-10.3l0,0l4.5-2.9l1.8,1l2.3-0.6l0.4-0.9
	L308.6,170.1L308.6,170.1z M329.8,148.9l4.6,1.7v0.7l-2.1,1.5l-7.7,1l-3.9-0.1l-1.2-1.1l0.5-2l2.1,0.5L329.8,148.9L329.8,148.9z
	 M366.1,141.4l2.1,0.1l3.4,3.3l-0.2,1.4l-2.1,0.5l-0.5,2.4l-4.3,2.5l-1.2,3.4l-1.6,1.1l-1.3-0.7l-0.7-4.2l3-0.9l-1.3-2.6l1.5-2
	l-0.3-2L366.1,141.4L366.1,141.4z M315.4,128.7l2.2,5.1l0.1,7l-3.9-4.1l-0.1-3.1L315.4,128.7L315.4,128.7z M329.2,111.8l5.7,2
	l2.6-1.6l-0.2,5.1l1.5,3.7l-2.3,1.1l0.1,1.2l-7.9-3l-1-3.6l-3.2-2.1l2.4-0.6l0.8-1.9L329.2,111.8L329.2,111.8z M369.9,97.9l1.6,1.5
	l0.2,3.2l-2.6,2.8l-4.1-3l-0.8-2C364.3,100.4,369.9,97.9,369.9,97.9z"/>
<path id="PH-CAN_1_" class="st10" d="M410.1,492.4l6.4,2.3l-1,0.8l1.7,1.1l0.8,0.3l1.2,0.6l-0.8-1l0.8-1.8l1.1,1l2,1.3l-1.8-4
	l1.4-0.5l2,0.4l0.6,2l2-1.2l2.9,1.3l-0.4,1.9l1.5,0.2l1.4-0.2l2.7,1.1l3.6,3.8l-0.1,0.4l0.1,1.5l1.7,0.2l3.7,5l1.9,0.9l0.7-0.1
	l1.4,1.1l0.4,2.3l-1.2,0.3l-0.1,2.3l1.9,3l2,0.8l0.9,6.6l-1,1.5l-1.1-0.2l-0.6,2.7l0,0l-8.5-6.9l-10.8-6.3l0,0l-25.3-10l-5.6,6.2
	l-4.7-0.2l-0.1-1.1l0,0l0.7-1.6l2.2-0.9l0.6-0.5l-0.1-1.3l-0.8-1.1l-0.3-3.2l1-0.9l0.2-1.2l2.4,0.8l-1.7-2.4l1.5-0.7l0.4-2.2
	l1.8,0.1l0.5-2.2l1,1.1l2.8-2.9l1.1,0.9l1-0.7l0.9-0.5L410.1,492.4L410.1,492.4z M440.7,485.6l2.5,2.2l-1.8-0.2l-2.2-1.9
	L440.7,485.6z M441.2,481.4l0.7,0.1l-1,1l0.7,0.7l-1.3,0.3l0.3,1.1l-3.1,0.3L441.2,481.4L441.2,481.4z"/>
<path id="PH-CAS_1_" class="st11" d="M504.3,519.9l1.4,0.4l-0.6,5.9l-1.8-4L504.3,519.9L504.3,519.9z M491.6,519.7l1.2,1.3l0.6-0.4
	l0.5,1.7l-3.8,2.7l-1.8-0.5l0.2-3.5l1.1,1.5l1.1-1.8l1.7,1.5L491.6,519.7L491.6,519.7z M469.5,510.3l1.3,2.1l-0.3,1.7l1.4,1
	l-1.6,0.2l-0.7,1.9l1.5,0.3l1.7-1.9l-0.4,2l1.1-0.2l0.5,1l-0.8,0.8l1.6,0.2l-0.6,3l1.6,1.4l1,0.6l0.9-1.1l-0.8-0.5l0.2-2.2l3.9,2.2
	l-0.9,2.1l2-1.3l0.3,1.2l1.6,0.4l0.1-1.8l2.1,1.2l0.6,0.2l1.4,1.6l3,0.8l1.5-0.8l1.2,1.2l2.5-0.4l-0.9-0.6l1.1-2.3l-0.7-1.5l1.7,1.7
	l0.9,2l1.3,2.2l1.6,0.3l-0.4,0.7l2,0.3l3.2,2.7l1.5-1.1l2.3,2.2h3.1l0.5,3.1l1.5-0.1v3.5l-0.4-1.3l-2-0.7l-0.3,1.2l-4.3-1.4l-2.7,3
	l-2.5,0.7l-3.8-1.7l-5.5-0.8l-1.2,1l-7-2.2l0.7,1.4l1-0.5l-2.4,3.6l-1.1,4l0.8,1.3l0.5,0.2l-1.5,2.6l1.2,1l1.4-0.8l1.2,0.6l1.2,2.3
	l0,0l-3.4,0.3l-0.8,1.1l3.1,4.7l-0.3,3.2l-6.8,2.8l-2.1-0.7l-1.9,0.6L474,567v1.1l-1.2-0.7l-8.1,5.8l0,0l-2.7-2.1l-2.1-4.2l-0.2-3.7
	l-1.3-2.8l-10.2-5.5l-0.9,0.5l-2.4-1.6l-1.9,0.1l-2-2.1l-4.5-2l-4-4.7l-2.5-0.8h1.9l2.7-3l-1.9-3.3l-4.6-3.1l-1.6-1l-1.7-2.2
	l-1.9,0.4l-1.5-1v1.5l-1.9-1l-1.2-1.4l1-0.9l-0.8-2.3l-4.5-1.7l0.6-1.5l-2.2,0.3l1-0.9l-1.5-1.2l0,0l17.7-4.8l0,0l10.8,6.3l8.5,6.9
	l0,0l-1,4.5l5.6,3.7l8-0.3l3.1-1.5l3.3-3.8l0.3-1.9l-3-5.1l3.5-3.2l0.6-2.4l-1.1,1.4l-0.9,1.7l-1.3,0.3l-2.5-1.6l0.4-1l-2.4-0.4
	l-0.4-2.3l2.7-1l-2.3-1.1l4-0.4l-2.3-3h1.5l3,2.8l-0.7-2.5l2.8-0.1l-1.3-1.6L469.5,510.3L469.5,510.3z M466.5,508.6l2,1.3l-0.7,1.6
	l-2-2.5L466.5,508.6L466.5,508.6z"/>
<path id="PH-CAM_1_" class="st13" d="M568.8,867.4l5,3.9l1.4,4.2l-0.5,1.1l1.1,0.8l-2.2,3l-2.4-1.7l-4.8-1.2l-3-3.7l0.6-4.6
	L568.8,867.4z"/>
<path id="PH-CAP_1_" class="st14" d="M424,694.7l5.6,0.3l0.1,1l2.4-1.1l0.2,1.1l2,2.1l0.6,0.9l-0.7,1.6l0.8-0.4l0.8-0.4l3.8,2.1
	l-1.1,1l-0.5,0.3l-1.9,0.8l0.6,1.5l-2.1,1l2.5,2.3l0.6-0.9l0.8-1.3l0.3-2.3l1.2,0.5l0.5-0.3l3.4-0.2l7.8-4.5l0,0l-3.5,6.9v3.9
	l-2.5,1.2l-2.8-0.2l-3,1.7l0.8,4l-4.2,2v2.9l-1.1-0.3l-1.6,3.6l-5.1,0.7l0.1-2.8l-1.5-0.7l-8.1,1.2l-1.8-1.8l1.6-2.1l-1.1-0.2
	l-3,3.3l-1.2-0.7l0.1-1.3l-1.3,0.9l-0.9,2.6l-3.9,1.8l-3-1.1l-4.5,0.2l-5-2.6l-6,6.3l0,0l-1.7-2.4l-0.4-3.5l-0.6,0.4l0.1-7l0,0
	l5.4-1.5l2-1.6l2.1-2.3l1.4-4.1l1.5,0.3l1.8-3.2l8.4-0.1l4.7-4V699l1,1.3v1.1h2.7l2.1-1.4l-1.6-0.7l1.1-2l0.7,2.3l0.8-0.1l1-0.2
	l-0.4-1.4l3.2-1.1l-0.6-1.3l-0.6-0.8H424L424,694.7z"/>
<path id="PH-CAT_1_" class="st1" d="M541.6,520.3l1.5,1.8l-2.2,0.3l-1.3-2.9l1.2,0.5l-0.2,0.9l0.3-1.9L541.6,520.3L541.6,520.3z
	 M532.3,510.7l4.7,6.1l1,5.4l2.1,0.7l-0.4,3l1-0.4l0.4-2.5l1.8-0.5l0.2,2.5l2,1l0.3,1.6l0.5-2.1l0.2,1.7l0.4-0.8l0.8,1.5l-1.1,0.5
	l1.6,1l-1.6,0.8h1.1l-0.4,1.6l1.2,1.3l-0.5,1l-1.8,0.2l1.2,2l-1.1,0.2l-0.7,2.5l2.3,3.8l-2.8,1.5V543l-0.9,0.2l-1.7,1.4l0.6,3.3
	l-1.8,2.8l1.4,0.6l-2-0.2l-0.2-2.5l-2-0.6l0.6-0.9l-5.8,3l-0.5,3.6l-2.7-1.1l-4.6-4.5l-4.4-0.7l1.2-1.1l-3-3.4l5.2-3.1l3-6.8
	l-0.5-6.3l1.5-3.2l-1.5-3.7l-0.2-1.9l1-0.9l-1-3.4l3.2,0.7L532.3,510.7L532.3,510.7z"/>
<path id="PH-CAV_1_" class="st10" d="M293.1,480.9l-0.6,1.1l-0.3,0.5l-0.7,2l1.2-0.6l0.6,0.7l0.3-1l3.7-1l0,0l-0.1,2.1l3.2,4.9v2.3
	l0,0l-0.3,2.9l4.5-1.3l-2.6,6l1.3,0.4l-1.4,2.7l1,0.3l-0.3,3.6l0,0l0.6,0.7l-6.8,3.8l-4.1,1.1l-1.1-0.6l-2.9,1.8l-0.5-2.1l-5.3-3.7
	l-4.3-0.2l-2.5-2.7l0.7-1.8l-4.4-1.4l0,0l0.1-3.4l2.4-1.5l2.8,0.4l1.5-1.1l1.2-1.4l2.8-1.4l7.3-7.3l1.7-4.5L293.1,480.9L293.1,480.9
	z"/>
<path id="PH-CEB_1_" class="st15" d="M522.6,792l-1.3,3.7l-0.9-0.3l-0.6-0.9L522.6,792z M516.4,788.6l1.4,1.6l2.8-1.5l-4.5,5.5
	l-1.1-0.1l-1.8,1.2l-0.7-1l1.8-1.3l-0.3-0.6l-0.7-0.1l-1,0.6l0.5-2.2L516.4,788.6L516.4,788.6z M549.1,760.5l5.1,2.8l0.4,1.8
	l-5.2,2.1l-3-0.1l-1.2-1.2l-0.2,1.5l-5,2.7l-2.7-0.3l2.1-4l0.8-4.8l4.2,1.4l0.7,3l2-4.2L549.1,760.5L549.1,760.5z M558.3,753.4
	l-1.3,4.1l-3.3,2.2l-0.2-2.2l2.5-3L558.3,753.4z M521.8,719.2l-0.4,1.4l1,0.4l-2.4,3.6l-0.2,4.3l-3.8,5.5l1,0.2l0.1,1.4l3.2-0.2
	l0.2,5.8l-1,3.5l1.8,3.5l-1.7,3.1l-0.2,4.2l-1.8,1.8l2.1,12.8l-1.1-0.3l0.5,2.5l0.6-0.7l0.2,0.8l-0.3,4l-2.5,6.2l1.7,2.2l-3.4,2.8
	l-0.6,1.3l-5.9,2.9l-1.5,3l-7.1,1.7l-0.7,2.2l-5.1,5l-0.3,3l-2.9,0.1l-1.9,6.5l0.7,3.4l-1.3,2.8l0.1,2.6l-2.5,1.2l-1,3l-1.7,1
	l0.1,3.3l-2,1.9v2.6l-3.1,9.1l-8.3,10.8l-3.7,0.5l-0.3-6.1l3.4-20.9l2-2.3v-3.8l1.5,0.1l0.8-2.7l-0.6-2.3l-2-0.8l0.2-3.1l1-0.7
	l0.5,2.2l1-0.6l0.9-5.5l2.4-0.9l0.2-1.3l4.9-5.2l0.7-3l4-5.1l-0.1-4.8l6.3-6.2l0.6-3l2.8-3.1l-0.7-3.4l2.9-4.6l-0.2-2l4.3-6.5l2.3-1
	l2.5-7l1-3.3l3.8-8.6v-1.3l-0.8,0.6l-1.5-2.3l2.3-2.3l0.1-3.1l2.3,1.7l-1.6-7.5l3.4-3.1l0.6-3.1L521.8,719.2L521.8,719.2z
	 M497.7,717.7l1.5,1.2l1.3,5.5l2.9,3.2l-0.1,1.1l-6.3,1l0.8-2h-1.1l-2.1-4.6L497.7,717.7L497.7,717.7z"/>
<path id="PH-COM_1_" class="st4" d="M674.3,959.1l-1.1,2.1l7.2,23.8l3.1,14.5l0.4,12.7L659,1025l-0.7,1.5l0,0l-4.2-3.7l0.6-2.9
	l-4-6.4l1.3-6.9l-0.4-1h-1.3l0,0l0.8-3.2l-1.2-1.9l0.5-2.1l3.8-1.8l-2.4-3l4.9-1l1.4-7.6l-2.5-3.2l3-5l-1.8-4.8l-3.8,4.3l-4.8,8.1
	l-1.7-0.1l0.3-2.5l-1-2.6l-2.2-1l-0.8-2.4l-1.8-0.6l-2-15.7l0,0h22.2l1.2,2.6l3.5,2l1.7-1.7L674.3,959.1L674.3,959.1z"/>
<path id="PH-DAV_1_" class="st4" d="M639.6,1034.6l1.5,0.2l1.1,1.6l-0.5,2.9l-1.9-0.7l-1.3-2.9L639.6,1034.6L639.6,1034.6z
	 M641.2,1017.5l1.9,2.1l2.1,0.4l2.6,3.3l-1.6,6.2l1.2,6.8l-2,3.3l-3.1-5.2l-0.8-7.6l-1.2-0.5l-1.2,0.9l-1.1-2.2L641.2,1017.5
	L641.2,1017.5z M638.9,959.3l2,15.7l1.8,0.6l0.8,2.4l2.2,1l1,2.6l-0.3,2.5l1.7,0.1l4.8-8.1l3.8-4.3l1.8,4.8l-3,5l2.5,3.2l-1.4,7.6
	l-4.9,1l2.4,3l-3.8,1.8l-0.5,2.1l1.2,1.9l-0.8,3.2l0,0l-1.5-0.2l-7,4.7l0,0h-3.2l-4,4.1l-7.6,0.4l-0.3-23.2l-18.3-0.5l0,0l-0.2-1.1
	l0,0l0.1-4.7l3.5-0.4l1.5,1.5l3.3-0.8l2.1,1.2l2.5-2.5l0.9-8l-1.8-3.8l0.2-6.9l-2.8-5.4l0,0L638.9,959.3L638.9,959.3z"/>
<path id="PH-DAS_1_" class="st16" d="M608.3,990.8l18.3,0.5l0.3,23.2l7.6-0.4l4-4.1h3.2l0,0l-2.5,2.2v1.3l-2.2,1.1l1.2,8.1l-1.1,2.2
	l-3.2,3.6l-1.8,0.4l-0.3,1.2l-1.3-1.6l-2.5,1.4l-2.7,3.4l0.2,4.3l-2.3,1.7l-0.3,1.9l-2.4,1.6l-2,3.3v0.7l-0.1,2.8l-1.3,2.1l0.9,6.6
	l-1.9,2.5l2,0.1l4,1.6l0.3-1.2l-2-1.9l0.7-0.9l2.5,2.9l1.5-0.3l-0.2,2l2.7,1.2l-0.1,2.6l2.4-1.1l2.2,1.4l-1.3,0.7l0.6,0.7l1.6-0.3
	l-1,5.3l1.9,0.6l0.8,0.6l3.9,11l2.3,3.3l0.7,3.2l-0.7,3.5l0.8,1.4l-1,5.7l-2.9,7.5l-10.8,12.4l-1.1,3.4l-6.1,9.5l-5.9,1.3l-0.8-1.1
	l0,0l-1-1.4l6.3-4.7l5.4-11.4l0.1-2l1.3-0.9l-0.5-4.2l3.9-10.8l0.2-3.6l-2-2.2l-0.4-7l-3.4-5.1l2.4-2.6l-0.5-4l-4.5-6.6l-5.2-1.5
	l-2.3,3.5l-5.1,2.3l-5.7-3l0,0l2-3l-0.1-1.9l0,0l-1.1-6.2l-3.5-4.3l-0.1-3.1l1.5-0.7l-2.3-1.7l0,0l-1.5-4.5l1.8-1.1l1.4,0.9l1.2-1.3
	l0.3-3.1l6.5-5.5l1.6-4.7l2.7-0.3l-1.8-2.6l-0.4-4.5l-3.1-2.6l-1.1-2.4l1.4-4.4l-1.4-6.7l1.6-2.5l-0.4-6.2l1.7-2.9L608.3,990.8
	L608.3,990.8z"/>
<path id="PH-DAO_1_" class="st17" d="M687.9,959.1l0.7,6.6l0,0v1.9l1.8,1.2l-0.8,1.1l0.7,1.6l3,0.1l-0.1,1.3l2,0.4l0.5,1.2l3.1,3.7
	l2.3-0.2l2.7,1.7l-1.4,1.6l0.7,1.7l-0.6,2.7l1.8,2.2h-1.1l-0.3,2l1.8,0.7l1.2,6.2l-0.3,2.5l-2.7,0.1l-0.5,0.9l0.2,2.4l1.9,0.5
	l-1.6,1.6l1,3.4l-1.4,1l1.1,1.8l2.8-0.1l-2.9,4l-0.3,2.2l-2-0.3l0.2,1.6l-1,1.1l0.6,1.6l-1.2,0.3v1.4l-2.1,0.5l-1.6,2.2l0.5,1.6
	l-1.6,0.6l-0.4,2.7l0.9,1.8l-3.2-0.7l-1.1,1l-2.4-0.1l-1.9-1l-1.7,2.1l-0.5,2.8l-2,0.8l0.6,1.7l4,3.4l0.3,4.1l-2.7-0.1l-1.8-1.4
	l-0.2-1.7l1.1-1.3l-1.7-1.6l-1-2l-1.5-1.7l-3.3-1.2l-1.4,3.7l1.3,1.1l-0.9,0.6l5.7,8.9l-3,8.7l0.9,6.1l-1.4,2.7v2.6l1,3.5l-1.1,0.3
	l-1.1,2.6l0.7,5l-1.1,3.8l-0.4-4.9l-1.5-2.5l-2.2-1.2l1-2.3l-2.9-3.4l-2-4.8l0.7-4.9l-1.8-4.2l1.8-2l-0.7-1.1l1-2.8l-1.6-1.8l0.3-6
	l-4.1-2.2l-3.4-3.9l1-6.1l-2.9-2.5l0.6-1.1l-1.2-0.9l0,0l0.7-1.5l24.9-12.8l-0.4-12.7l-3.1-14.5l-7.2-23.8l1.1-2.1l0,0L687.9,959.1
	L687.9,959.1z"/>
<path id="PH-DIN_1_" class="st18" d="M624.1,779.2l2.2,1.3l-0.3,1.7l-1.5-0.3l-1-2.2L624.1,779.2L624.1,779.2z M636.5,778.5l2.8,5.8
	l-2.5,6.3l0.4,4l-2.3-1.3l0.3,1.7l1.6,0.3l1.1,3.2l-1,0.9l0.4,1.5l1.6-0.2l-1.3,1.4l0.2,2l2.7,4.5l-1.9,4.8l0.5,2.3l-1.6,1l3.7,4.1
	l-0.5,1.9l-1.7-0.1l-0.8,1.1l-1.8-2.2l-0.1-4.1l-3.6-1.2l1.8-0.4l-1.8-1.2h-1l-1.3-1l1.5-0.6l-0.5-2.2l0.1-1.1l1.1-0.6l-0.1-1.9
	l-1.3-0.8l0.3,1.7l-2.1-1.4l-2.8,1.5l-2.7-5.3l1-0.7l0.8-3h1.9v-0.6l1.2-0.9l-2.2-2.9l0.6-2.5l-0.2-0.7l-0.3-2.7l3.2,0.1l-0.6-4.5
	l2.3,1.7l1.1-0.5l1.2-5.6L636.5,778.5L636.5,778.5z"/>
<path id="PH-EAS_1_" class="st15" d="M659.3,756.2l0.7,2.2l-2.3-1.9L659.3,756.2L659.3,756.2z M640.3,752.7l2.4,1.9l-1.2,2.5
	l0.5,1.3l6.8,1.2l0.6,1l-0.8,1.6l-4.2,0.5l-2-2.1l-1.9-0.4l0.2-0.9l-2.3-0.7l-0.8-3L640.3,752.7z M636.7,739.3l0.5,1.9l-0.9,0.5
	l-1.6-1l0.1-1.2L636.7,739.3z M645.6,737.3l5.2,6.8l-1,0.1l-4.4-5.5L645.6,737.3z M601,645l1.1-4l2-2.2l7.1,8l2.1-1.3l0,0l-0.3,0.6
	l1.4,0.2l1.3-2.7l1.8,0.2l-1.8,1.7l0.7,0.6l1.2,0.4l1-1.2l0.5,0.9l0.5-1.2l1.9,0.9l1.9,2.2l-0.6,1.2l1.6-0.2l0.1,1.4l1.1,0.7v-1.1
	l1.5,1.9l-0.3,1.5l-0.9-0.9l-0.1,1l-3,0.4l1.4,1l-0.5,1l-1.6,0.1v2.4l2.6-0.2l0.6,0.8l-1.5,0.3l2.1,2.2h1.3l-4.4,5l-2.1,2.7
	l-0.4,4.5l1.7,1.8l-0.5,3.4l1.9,0.5l0.8,1.9l-0.9,1.5l-1.6-0.7l-2,1.7h1.4l-0.4,0.7l1,0.7l1.6-1.4l1.5,4.7l-0.8,0.7l1.5,0.9
	l-0.8,0.8l-2.1-0.5l-0.4,1l1.2,0.9l-1.8,2.2l0.7,1.7l1.8-0.1l-0.3,3.4l3.3,3.8l0.2,1.5l-1.8,1.9l2.1-0.5l1.6,1.2l0.6,2.3l0.8,0.9
	l1.5-0.4l1.4,2.5l2.2,0.7l-1.4,4.1l-4.7,3.1l-1,4.4l4.6,1.5l-0.7-0.7h1.9l0.3-0.8l-2.3-1.9l0.9-0.5l4.8,2.6l7.1,12.2l-0.8,1.3
	l-2.5-1.1l-1.2-2.8l-2.2-1.2l2.2-2.3l-2.6-0.2l-0.4-1.8l-5.6,2.1l-0.5-0.3l-1.2-0.7l0.9-1.6l-2.9-0.1l-1.3,5l-1.5-1.4l-1-0.5l-1-1.4
	l-0.9,0.6l0.4,1.4l-1.4-0.9l-0.2,1.4l-1.8,0.7l-0.2-1.3l-2.3,0.1l-1-1.5l-3.1,0.2l-1.4-1.9l-2.3,0.5l-0.9,1.4l0,0l-0.3-14.7l4.2-6
	l-1.5-2l-4-1.4l-1.8-11.4l1-2.6l4.4-3.2l-0.9-13l-4.5-10.4h-6.7l-0.2-12.7l2.4-1.6L601,645L601,645z"/>
<path id="PH-GUI_1_" class="st19" d="M423.4,778.3l1.6,1.6l-3.2,0.7l0.2-1.8L423.4,778.3z M420,757.8l3.9,2.8l0.6,1.7l0.4,5.6
	l-3.1,6.2l-0.2,2.2l-1.3,2.1h-1.4l0.1,1.5l-1.4,1.2l-3.4,0.4l-2.8,1.6l-2,0.1l-0.4-3.3l-2.5-2.2l0.6-1.9l2.9-0.7v-1.8l-0.9-3
	l3.8-4.5l-0.1-1.7l1.4,0.4l2.1-1.2l0.4-3.1L420,757.8L420,757.8z"/>
<path id="PH-IFU_1_" class="st20" d="M290.7,306.5h2.7l2.3-2.2l2.5-5.7l-0.9-2.9l0.6-2l3.4,0.3l2.4-1.3l3.6-0.2l8.6,0.6l9-4.6l6.4-1
	l8.4,0.7l0,0l2.4,12.8l-3.1,3.6l-6.3,1.9l-1.7-0.8l-2.1,2.6l-2.8,0.3l-0.9,1.7l-1.3-0.1l0.7,1l-0.8,1.3l0,0l-1.4,3.7l-1.9,0.6l0.4,2
	l-1.3-0.5l-3.7,1.6l0,0l-0.4,0.1l0,0l-23,3.8l0,0l-0.5-13.9L290.7,306.5z"/>
<path id="PH-ILN_1_" class="st20" d="M288.4,168.4l4.7,6.7l3,0.4l1.4-1.8l0,0l-0.9,10.3l0,0l-1.4,6l1.2,12.9l1.2,2.4l-2.9,5.1
	l0.3,7.8l-0.9,1.4l0,0l-1.3,2.1l-5.5-0.7l-3.6,3.7l-4,1.4l-2.7,4.4l-7.9,2.7l-3.4,7.2l0,0l-1.5-1.6l-0.3-2.2l1.5-9.9l-6.4-1.4l0,0
	l-1-1.1l2.6-2l0.6-2.5l1.8-1.6l-1.8-2.5l0.3-3.9l-0.6-0.4l3-3.6l0.5-3.8l0.8-0.5l-0.5-0.7l3.9-5.9l1.8-5.1l-0.4-5l-2.4-6.1l4.5-4.1
	l6.5,1.3l4.2-1.1l1.1-2.1l-0.4-3.9L288.4,168.4L288.4,168.4z"/>
<path id="PH-ILS_1_" class="st11" d="M259.2,225.2l6.4,1.4l-1.5,9.9l0.3,2.2l1.5,1.6l0,0l-2.4,4.9l-1.1,7.2l-1.5,3.3l1.1,1.6
	l3.1-1.4l4.4,1.8l-0.5,3.5l-2.9,5.5l1.4,3.8l4.1-0.2l5,4.1l-0.1,4.3l-1,0.4l2,2.5l4.5,0.2l3.1-2.3h4.3l0,0l-5.6,5.9l0.5,10.4
	l-0.8,2.8l0,0l-2.3,1.6l-5.2,0.2l-2,1.1l-1.7,12.4l-2.9,5.4l0,0l-3.5-4.2l1.3-4.1l-1.1-0.8l0.6-1l-1.5-0.2l0.9-1.4l-2.1-2.2l0.7-5.7
	l-2.2,1.4l-0.9-1.1l-1.5,0.6l-3.1-1l0,0l2.7-4.5l-0.7-7.5l-0.8-7.3l-1.7-2.6l2.3-5.7l-1.2-0.3l0.3-3.5l1.3-0.2l0.9-3.8l0.6-1.5
	l-1.2-2.8l-1.2-0.4l0.3-2.1l-0.9-1.4l0.1-0.8l-1.4-0.5l-1.2-0.4l0.2-1l-2.7-1.2l-0.5-2.1l2-7.1l0.4-1l4.3-3.8l-0.5-1.6l-1.7-0.2
	l1.4-1.3l-1.7-1.6l2-0.8l0.4-1.4l1.6-0.1l-1.3-3.1L259.2,225.2L259.2,225.2z"/>
<path id="PH-ILI_1_" class="st19" d="M455.3,728.4l0.5,0.9l-2.7,3.1l-0.6-2.7L455.3,728.4z M456.9,723.5l1.6,0.1l-1.3,2l-1.1-1.3
	L456.9,723.5z M456.7,716.8l2.1,1.4l-3.2,3.3l0.2-4.1L456.7,716.8z M463.5,705.9l1.3,1.1l-1.9,1.7l-0.6-2.3l0.4-0.8L463.5,705.9
	L463.5,705.9z M461.8,705.6l-2.1,0.3l-1.1-1.2l0.6-1.9l1.4-0.5l0.6,1L461.8,705.6L461.8,705.6z M459,700l-0.4,2l-2.6,1.5l0.7-2.4
	L459,700L459,700z M455.5,695.7l1,2.7l-1.8,4l-1.2-1.5l-0.5,0.9l-1.3-0.3l1.2,1.8l2,0.3l-0.9,1.1l1.8-0.8l0.9,1.3l-2.7,4l1.7,1.7
	l-0.7,2l-1.1,0.3l0.5,1.3l-2.5,1l0.7,2.4l-1.1,5.1l2.3,2.2l-0.3,2.5l-1.2,0.7l-3-2.2l0.4,1.3H447l-1.5,5.5l-2.4,2.5l-0.2-0.8
	l-1.6,0.3l0.9,1.2l-0.8,1.2l-1.2,0.1l0.5-1.8l-1.4-0.7l-1.3,3.3l-2.5-0.8l-1.5,1v2l-1.5-0.8l-3.5,1.1l-1.6,2.9l2.2,3.8l-1,0.2
	l0.4,2.6l-1.8,0.7l0.3,1.7l-2.6,3l-4.1-1l-0.5,1.3l-3.9,0.3l-1.5,2l0.9,1.3l-1.4,2.9h-9l-13.3,2.2l-2.1,1.7l-2.7-0.2l-4.7,4
	l-3.5,0.7l-1.3,3.6l-3.5,4.3l0,0l-1.2-0.5l-0.2-1.4l0.8-5.9l0.9-3.6l2.9-4.9l7.4-4.8l1.9-5.7l4.4-4.5l1.3,0.2l1.1-2.6l2.1-0.5
	l-0.8-1.7l0.5-5.2l-5.9-8.2l0,0l6-6.3l5,2.6l4.5-0.2l3,1.1l3.9-1.8l0.9-2.6l1.3-0.9l-0.1,1.3l1.2,0.7l3-3.3l1.1,0.2l-1.6,2.1
	l1.8,1.8l8.1-1.2l1.5,0.7l-0.1,2.8l5.1-0.7l1.6-3.6l1.1,0.3v-2.9l4.2-2l-0.8-4l3-1.7l2.8,0.2l2.5-1.2V707l3.5-6.9l0,0L455.5,695.7
	L455.5,695.7z M470.6,696l-1.6,1.6l-1-0.8l0.6-1L470.6,696z M470.8,692.9l-0.8,2.3l-0.5-1.9L470.8,692.9z"/>
<path id="PH-ISA_1_" class="st11" d="M385.9,252.1v3.1l4.4,7.1l-1,0.6l1.3,1.2l-0.6,1.7l1.4,0.8l1.4-0.6l0.1,1.7l1.7,0.6l0.9-0.8
	l2.3,0.5l1.2-1.4l1.6,1l1.1,0.5l2.6,5.2l-0.2,1.7l-0.7,2.1l-1.3,2.2l0.4,3.4l1.4,1.2l0.8,0.6l2.6-0.1l1.9-2l1.4,3.3l-1.3,4.6
	l-3.2,4.6l0.8,1.9l-1.5,3.6l0.7,1.1l-2.7,4.6l0.5,2.1l-1.3,0.8l-8.7,17.8l-1.9,2.1l0,0l-10.2-0.5l0,0l-3.6-0.3l-23.7,10.8
	l-14.4-18.1l-10.8-0.9l0,0l-0.6-3.5l-4.8-4.5l0,0l0.8-1.3l-0.7-1l1.3,0.1l0.9-1.7l2.8-0.3l2.1-2.6l1.7,0.8l6.3-1.9l3.1-3.6
	l-2.4-12.8l0,0l-0.3-15.7l0,0l4-8.9l5.1-3.6l-1.4-4.8l0,0l12-0.7l2.2-1.3L385.9,252.1L385.9,252.1L385.9,252.1L385.9,252.1z"/>
<path id="PH-KAL_1_" class="st10" d="M331.7,241.4l-0.2,1.8l2.9-0.5l12.8,12.4l0,0l1.4,4.8l-5.1,3.6l-4,8.9l0,0l-10.1-1.9l-5,1.8
	l-6.6,7.2l-6.4,1.4l-5.5-1.9l-2.2-3.1l-10.3-1l0,0l5.8-12.2l0.3-6.2l8.1-5.3l0.7-2.1l-2-5.9l2.3-1.3l0,0l7.6,4.5l1.9-3.5l9.8,2.2
	l0.7-1.8L331.7,241.4z"/>
<path id="PH-LUN_1_" class="st20" d="M256.7,299.5l3.1,1l1.5-0.6l0.9,1.1l2.2-1.4l-0.7,5.7l2.1,2.2l-0.9,1.4l1.5,0.2l-0.6,1l1.1,0.8
	l-1.3,4.1l3.5,4.2l0,0l-2.8,3.9l1.2,0.8l-4.5,4.2l-2,3.3l3.1,19.6l0,0l-1,1.9l-6.1,0.2l0,0l-1.1-3.2l-2.6-1.6l-1.2-0.7l-0.2-4.9
	l-1.6-3.2l0.1-0.4l0.4-5.5l-1.9-2.5l0.4-1.4l0.8-4l-3.1-3.5l2.2,0.5v-2.4l2.2-3l0.3-3.7l-1.3-5.1l0.8-2.6l4.6-3.3L256.7,299.5z"/>
<path id="PH-LAG_1_" class="st1" d="M333.6,475.2l6.5,12.4l1.1-0.7l1.6,1.6l1.9,0.2l0.6,9.9l-4.8,6.7l-1.2-0.1l-1.9,1.9l-2.2,5.4
	l-4.5,0.7l-7.4,5.8l-5,1.6l0,0v-2l-1.3,0.2l-1.9-2.9l-1.6-7.8l-6.3-1.8l-4.7,0.2l0,0l0.3-3.6l-1-0.3l1.4-2.7l-1.3-0.4l2.6-6
	l-4.5,1.3l0.3-2.9l0,0l3.1-2.1l0.4-8.6l3.2-2.7l0,0l2.2-0.2l2,1.5l3.8,7.6l0.2-4.7h1.1l1.3-3.2l1.9,0.3l0.2,2l1.6,0.1l1.7,1.7
	l0.9,3.8l-2.5,6.2l0.2,2.8l5.8-4.1l-1.5-1.7l0.5-2.3l-1.1-4.4l1.1-4.6l3.1-3L333.6,475.2L333.6,475.2z M318.3,492.3l-1.2-0.2
	l-1.2-5.5l-0.5,5.3l1.9,4.5l-0.1-2.8l1.3-0.3L318.3,492.3L318.3,492.3z M318.4,480.2L318.4,480.2l-0.2,0.2L318.4,480.2z
	 M318.7,480.2L318.7,480.2l-0.1,0.1L318.7,480.2z M318.2,479.7L318.2,479.7L318.2,479.7L318.2,479.7L318.2,479.7L318.2,479.7z"/>
<path id="PH-LAN_1_" class="st21" d="M535.1,935.3l5.6-1l10.9,0.7l4.5,2.8l2.3,4.2l0,0l-0.3,1.8l1,1.7l-1.1,2l-4.7,1.5l0,0l-2.1-1.6
	l-8.7-2.6l-1-1.2l-2.4,0.3l-1.6,5.5l0.2,3.6l-4.7,4.8l-6.3,1l0.8,2.7l-2,4.4l-6.4,0.4l1.6,5.4l-2.6,5.2l0.4,2.2l-1,2.1l-11.9-3.7
	l0.1,1.3l-1.7,2l0,0l-3-0.2l-0.8-2.1h-2l0.2-2.4l-1.3-1.9l-2.1-0.5v-1.1l-5.1-1.2l0,0l3.5-9.1l0,0l1.8-2l3.8-1.4l2.8-4.2l3.4-2.1
	l1-1.9l1.5,0.6l2.2-0.8l2.4-2.8l6.2-3.2l10,0.9l4.8-1.9l3.1-4.9L535.1,935.3z"/>
<path id="PH-LAS_1_" class="st0" d="M553.3,949.1l2.7,3.3l1.8,7.9l3,5.7l1.9,1l-0.5,1.5l1,1.8l2.1,0.8l3.5,6l1.4,0.7l0.1,3.1
	l1.8,1.6v1.9l3.5,2.2l0.3,1.4l0,0l-7.7-2.6l-3.8,2l-2.9-0.7l-2.9-3.7l-2.2-0.6l-3,0.2l-4,1.9l0,0l0,0l0,0l-5.5,6.1l-8.4,4.3l-4,4.9
	l0.3,1.5l0,0l-1.4,0.5l-3.8-2.3l1.3-1l-2.1-3.8l-7.5-9.8l-2.1,0.3l-0.9-1.6l-4.2-2l-7.2-0.5l0,0l1.7-1.9l-0.1-1.3l11.9,3.7l1-2.1
	l-0.4-2.2l2.6-5.2l-1.6-5.4l6.4-0.4l1.9-4.4l-0.8-2.7l6.3-1l4.7-4.8l-0.2-3.6l1.6-5.5l2.4-0.3l1,1.2l8.7,2.6L553.3,949.1
	L553.3,949.1z"/>
<path id="PH-LEY_1_" class="st8" d="M540.1,698.3l8.9,8.9l2.3,3.9l0.8-1.3l-1.3-2.8l1.2-0.7l4.2,2.2l1.1,6.3l2.4,2.5l1.7-0.5l3,1.3
	l4.4-1l6.6-5l1-4.2l3.4,0.5l1.2,1.2l1.8-1l0.8,1l2-1.4l1,2.5l1.7-0.4l-0.8,1.5l0.8,0.7l-1.2,1.2v5.3l1.1,2l2.2,0.1l-0.2,2.3l1,0.8
	l-0.9,3.9l2.3,6.6l-0.4,9.7l-2.3,6.6l1.7,7.8l1.1,1.5l5.4,1.6l-0.8,1.6l3.2,3.8l0,0l-7,7.2h-8.2l-3.4,8.8l0.7,10.4l-3.8,0.8l-5.2,5
	l-1.2-0.5l0,0l2.2-9.2l-1.8-2.9l-2.4-1.4l-0.9-7.9l3.3-3.8l0.3-6.2l2.4-2.8l-1.5-8.5l-5.5-7.7l-1.7-4.3l-2.2-1l-4.2-4.5l-1.8,0.3
	l-2.4,2.3l0.9,3.5l-2.5,4.6l-2.8,0.1l-2-2.3l-1.2,0.6l0.4-2.2l-1.3-2.2l-0.3,2.6l-2.9-0.8l2.5-4.3l-0.3-3.7l-2.6-2.3l2.3-3.4
	l-1.3-6.8l0.1-1.7l0.2-1.2l-0.8-2.3l-0.7-1.1l0.3-1.2l-2.1-0.7v-3.5l1.4-0.2l-2.2-0.9l-0.4-1.3l1.7-0.8l-2.3-0.6l-2-5.8v-3.3
	L540.1,698.3L540.1,698.3z"/>
<path id="PH_MG_1_" class="st7" d="M518.8,1010.3l-0.2-2.5l4.2-3.3l-2.5,3.2l0.3,1.4L518.8,1010.3z M582.4,1047.6l-4,1.1l-2.1-0.9
	l-0.5-15.9h-1.3v-0.8l0.2-3.5l2,0.1l0.2-1.9l-2.1-0.1v-1.8l-6.2-5.9l0.3,0.8l-1.6,0.5l0.1,2l2.6,1.3l1.1,1.8l-1.3-0.1l0.5,1.9
	l-1.4-1.4l-0.8,2.2l-0.2-1.1l-1,0.2l-0.5,1.4l1.5,0.8l1,2.4l-0.7,0.8l1,0.6l-2.4,1.9l0.3,1.3l-0.9,0.5l-3.7-2l-2.9,0.3l-3.9-5
	l-2.3,0.7l-5.3-4.2l5.8-10.6l-2.8-0.8l-4,1.2l-3,4.4l-3.2-0.5l5.7-9.5l1,0.5l4.7-10.8l-3.8-5.5l0.5-9.6l-5.5,6.1l-8.4,4.3l-4,4.9
	l0.3,1.5l0.6,1l2.6-0.4l0.4,2.6l0.9,0.3l-0.3,1.9l-3.1,0.2l0.4,3.2l-0.8,3.1l0.8,0.9l-2.1-0.4l-0.2,2.2l-1.2-0.3l-0.8,1.6l3.8,0.5
	l1.8,1.6h-0.7l0,0l0,0l-1.2-1.5l-3.1-0.1l-3.9,3.2l-3.6,0.4l-4.7,7.5l-3.2,9.5l1.4,3.2l-1.3,0.9l0.3,1.9l-1.4,0.7l1.3,0.4l-0.1,1.8
	l1.1-0.4l-0.4,1.8l2.9-1.8l2.2,3.2l4.3,0.1l12-0.3l1.2,2.1l16.6,0.1l5-5.3l-1.7-4.8l7.4-1.6l-0.2,0.9l2.9,0.2l-2.1,6.1l5.8,0.1
	l2.3,7.9l1.5,1.7l6.3-0.5l8.6-4.7L582.4,1047.6L582.4,1047.6z"/>
<path id="PH-MAD_1_" class="st10" d="M362.7,550l0.3,1.3l1.1-0.4l0.4,1.6l1.5,0.8l1-1.3l2.7,0.9l2.3,0.7l0.8-2l1.7,1.5l-0.7,1.2h1.8
	l0.7,1.9l-1,0.2l2.3,0.6l0.8-1l3,2.5l-0.8,2.2l-1.1-0.7l-0.1,0.9l3.6,3.8l-7.5,7l0.5,2.6l-1.8,3.1l-3.4-0.6l-2.3-3l-6.2-2.7
	l-3.3-4.5l0.3-4.3l-1-3.3l3.7-6.2l-0.6-0.7l0.8-0.7l-0.6-1L362.7,550L362.7,550z"/>
<path id="PH-MAS_1_" class="st10" d="M454.4,676.3l0.6,0.7l-1.5,1.3l-0.3-1.4L454.4,676.3z M461.9,621.8l10.3,4.4l-2.9,0.2l1.5,4.1
	l-2.7,1.2l0.7,1.4l1,0.7l1-2.4l1.7,0.4l-1.3-2l0.5-1.1l2.2-1.1l2.9,0.5l6.6,5l1.4-0.9l1.1,3.7l2.9,2.1l-2.6,2.1l3.4-0.5l0.8,0.1
	l1.4,1.3l1.4-0.5l1.8,1.2l6.6,10l0.8-0.4l-0.9-1.9l1.4-1.3l1.6,0.6l2.3,3.1l1.3-2l1.6,1l1.7,4.2l9.7,13.6l-0.3,1.5l-2.6-4.5
	l-1.1-0.2l-0.4,1.7l1.5,2.7h0.9l3.3,7.2l-1.1,4.3l1.1,5.4l-1.5-0.4l-2.6-4.3l-6.8-5.8l-1,0.2l-3.2-2.7l-0.2-0.1l-9.9-2.3l0.4-1.1
	l-1.2-0.7l1.4-1.8l1.4-0.2l-7.3-4.8l-0.6-1.4l-2.9-0.6l1-1.5l-5.6-8.5l-2.7-1l-5.2,1.7l-4.4,6.8l-2.3,1.1l-0.9,1.7l-0.7-0.4
	l-1.3,3.9l-10,8.6l-1.3-1.9l3.9-6.5l-0.4-1.4l1.1-1.5l0.9-5.4l1.6-0.4l3-1.8l-0.9-2.6l1.1-1.2l-1.6-2.3l-2.4,2.1l-0.9-1.5l1.3-0.2
	l-0.9-2.1l3.2-4.9l-0.5-3.2l1.1-0.7l1-2.5l-0.9-0.5l1-0.9l-2.8-1.3L461.9,621.8L461.9,621.8z M490,614.9l2.2,3.2l4,1.9l-0.9,0.6
	l0.5,0.3h1.6l0.7,2.1l0.1,1l0.9,2.4l0.2,0.5l1.3,2.7l0.3,5.8l1.3,0.5l-0.5,2.7l1.1,0.1l-0.9,2.4l-4.5-4.7l-3.1-4.5l0.1-1.4l-3.8-4.5
	l-1.7-4.7l-0.9,0.5l-1.5-2.2l0.2-1.6l0.7,1.5l0.8-0.9l0.9,0.7l-1.3-2.9L490,614.9L490,614.9z M444.4,580.5l1.2,1.6l2.4,0.2l10,16.4
	l4,0.3l2.7,1.5l0.9,5.3l7,9.3l-1.8-0.2L469,613l-5.3-8.2l-4.6-0.7l-2.1-3.2l-2.3-0.5l0.6-1l-2.9-1.4l-1.3-2.9l-1,0.5l-1-3l-5.7-0.6
	l-1.5-2.4l-1.4,1v-3l1-1.4l-2.3-2.1l2.9-1.2L444.4,580.5L444.4,580.5z"/>
<path id="PH-MNL_1_" class="st20" d="M293.5,466.6l0.8-0.8l1.3,1.6l0.9-0.5l-1.6-3.2l0.9-0.4l1.4,0.6l0.3,1.4l1.4-0.2l1-2.4l0,0
	l0.3-0.3l0,0l2.4-0.6l0.3-1.6l1.1-0.3l1,1.3l2.9,0.3l0,0v1.4l1.2,0.1l-2,4.7l2,1.3l-0.3,1.7l-1.9,0.6l0.6,2.7l-1.2,1.7l0.9,2.8l0,0
	l-3.2,2.7l-0.4,8.6l-3.1,2.1l0,0v-2.3l-3.2-4.9l0.1-2.1l0,0l1.4-2l-1.1-0.5l0.8-0.6v-3.2l-3-2.6l0.4-1.4l0.8,0.9l0.2-2.8l-0.8,0.2
	L293.5,466.6L293.5,466.6z"/>
<path id="PH-MSC_1_" class="st17" d="M489.1,910.3l0.8,0.6l-0.5,0.8l1.7,0.6h3.5l4.1,4.5l2.9,3.2l-0.2,2.2l2.7,2.1l-0.1,1.6l1.6,2
	l0.6,5.8l1.2,1.7l-1.1,0.9l-0.1,2.2l1.3,9.1l-5.6,4.2l-2,3.7l-3.5-0.3l-5.5,3l0,0l-0.1-1.3l-2.4,0.5l-2.8-1.5l-1-12.4l0,0l0.4-29.6
	l0,0l0.8,0.4l0.9-1.2l0.6,0.3l1.2-1.8l-1.7-0.5L489.1,910.3L489.1,910.3z"/>
<path id="PH-MSR_1_" class="st13" d="M604.8,879.5l2.2,9.9l-1.2,2.5l2.6,3.6l-1.8,1.4l0.8,14.3l0,0l0.1,5.7l0,0l-15.6,0.2l-11.7-1.1
	l-3.9,8.7l0.2,3.8l-14.4-0.2l-0.2,4.2l-1.2,1.8l0.4,2.7l-1,1.1l-0.9-0.4l0.3,2.3l-1.2,2.1l0,0l-2.3-4.2l-4.5-2.8l-10.9-0.7l-5.6,1
	l0,0l1.2-3.7l1.5-1.3l0.1-4.8l2.3-5.8l9.7-6l2.1,0.2l-0.5,2.2l3,1.2l2.3,2.4l1.9,0.2l0.6,1.4l5.5,0.7l-0.9,1.5l1.5-1.3l0.4,1.7
	l2.5,0.8l2.8-1.5l0.9-1.5l-0.8-3.3l2.1-2.7l-0.7-3.5l-1.5-0.7l-0.1-3.1l1.3-1.8h1.4l-1-3.6l1.8-4.2l-0.8-11.1l2.8-2.1l3.7-0.3
	l11.3,6.5l3.9,6.6l6.2-1.3l1.8-6l-1.2-6l1-1.3l0.2-3.7L604.8,879.5L604.8,879.5z"/>
<path id="PH-MOU_1_" class="st1" d="M339.4,272.4l0.3,15.7l0,0l-8.4-0.7l-6.4,1l-9,4.6l-8.6-0.6l-3.6,0.2l-2.4,1.3l-3.4-0.3l-0.6,2
	l0.9,2.9l-2.5,5.7l-2.3,2.2h-2.7l0,0l-1.7-0.8l-0.8-2.6l-5-4.7l0,0l0.8-2.8l-0.5-10.4l5.6-5.9l0,0l2.9-0.2l1.3-1.7v-2.6l0,0l10.3,1
	l2.2,3.1l5.5,1.9l6.4-1.4l6.6-7.2l5-1.8L339.4,272.4z"/>
<path id="PH-NEC_1_" class="st22" d="M458.9,739.5l3.6,0.4l1.5,0.9l3.7,2.7l6.6-0.3l4.4,2.5l1.7-1.3l1.6,1.3l-1.4,0.8l1.9,0.5
	l0.9,4.8l2.4-0.5l-0.7,1.9l0.9,1.8l-1.9,3.2l-1.1-0.8l0.3,1.5l-1.6,2.5l-1.5,8l-1.2,3.8l-1,0.4l0.4,1.2l-3,3.4l-4.7,2.5l-1.6,4.3
	l0,0l-6.1-2.3l-8.9,0.2l5.2,10.4l-6.3,7.6l-6.8,11.2l-2.1,7.4l-18.5,23.7l-6.5,6.5l-2.5,5.8l0,0l-5.5-5.2l-1.4-3.8l-2.8-1.6
	l-1.1-4.4l-1.6,0.3l1-2.9l-2-0.8l-1.7,0.9l-0.7-1l1.7-2l-1.8,0.6l-1.2-1.2l1.3-2.6l-0.8-3.3l0.9-1.9l-1.8-1.5l4.1-4.6l1.4-5.6l4-0.8
	l11.4,0.7l8.3-6.5l3.3,0.3l3.1-2.4l-2-9.5l0.1-5.2l1.7-5.4l-5-11.1l2.3-2.2l2,0.3l1.9-1.2l0.1-1.2l2.6-2.1l1.8-5.3l0.2-3.2l1.2-0.5
	l0.4-4.6l-1.3-1.1l-0.5-3.4l1-1.1l-0.3-1.9l6.3-2.1l1.6,1.3l4.9-4.8l2-0.2L458.9,739.5L458.9,739.5z"/>
<path id="PH-NER_1_" class="st8" d="M416.6,855.5l2.5-5.8l6.5-6.5l18.5-23.5l2.1-7.4l6.8-11.2l6.3-7.6l-5.2-10.4l8.9-0.2l6.1,2.3
	l0,0l-0.3,7.7l-3.3,6.8l-0.3,4l-3.9,9.2l-3.3,3.7l-0.4,2.1l-1.9,1.4v3.7l-1.4,1.1l2.1,9.7L456,840l-2.3-1.6l-1.3,1.9l1.2,2.2
	l2.5,0.3l0.5,1.4l-1,1.1l0.1-1.2l-1.1-0.5l-1.3,2.7l2.5,0.1l2.2,5l3.2,1.1l2.3,6.1l2.8,2.1l1,2.4l-2,8l-6,8.4l-3.7,1.4l-1.8,2.2
	l-1.1-0.6l-2.7-0.9l-4.3,2.1l-5.4-2.7l-4.6-10.9l-1-7.6l-5.1-2.5l-8.7-1.2L416.6,855.5L416.6,855.5z"/>
<path id="PH-NCO_1_" class="st21" d="M549.3,984.4l4-1.9l3-0.2l2.2,0.6l2.9,3.7l3,0.7l3.8-2l7.7,2.6l0,0l1.3,4.5l-1.8,1.8l-0.8,2.7
	l2.1-1.1l1.6,1.2v2.1l2.8,1.3l0.1,1.2l3.5-1.2l3.2,2.3l5.5-0.4l1.3-3.4l6.4-1l0.8-4.2l2-3.6l1.7,0.1l0.2-1.6l2.3,0.9l0,0l0.2,1.1
	l0,0l0.8,4.4l-1.7,2.9l0.4,6.2l-1.5,2.5l1.4,6.7l-1.4,4.4l1.1,2.4l3.1,2.6l0.4,4.5l1.8,2.6l-2.7,0.3l-1.6,4.7l-6.5,5.5l-0.3,3.1
	l-1.2,1.3l-1.4-0.9l-1.8,1.1l1.5,4.5l0,0l-8.5,2.6l0,0l-7.7-4.6l-4,1.1l-2.1-0.9l-0.5-15.9h-1.3v-0.8l0.2-3.5l2,0.1l0.2-1.9
	l-2.1-0.1v-1.8l-6.2-5.9l0.3,0.8l-1.6,0.5l0.1,2l2.6,1.3l1.1,1.8l-1.3-0.1l0.5,1.9l-1.4-1.4l-0.8,2.2l-0.2-1.1l-1,0.2l-0.5,1.4
	l1.6,0.8l1,2.4l-0.7,0.8l1,0.6l-2.4,1.9l0.3,1.3l-0.9,0.5l-3.7-2l-2.8,0.3l-3.9-5l-2.3,0.7l-5.3-4.2l0,0l5.8-10.6l-2.8-0.8l-4,1.2
	l-3,4.3l-3.2-0.5l5.7-9.5l1,0.5l4.7-10.8l-3.8-5.5L549.3,984.4z"/>
<path id="PH-NSA_1_" class="st19" d="M524.5,644.7l1,1.1l-1.1,1.4l-1-1.8L524.5,644.7z M537.4,639.4l-2-3.1l-0.3-4.1l2.5,3.4
	L537.4,639.4L537.4,639.4z M527.6,630.7l3.6,5l-0.8,2.3l-3.1-3.7L527.6,630.7z M548.3,623.3l0.3,1.2l1.7,0.6l-1,0.9l-2.1-1
	L548.3,623.3z M553,623.2l2.1,2.9l-1.5,0.2l-2.1-2.9L553,623.2L553,623.2z M543.6,622.6l1.6,0.4l-0.2,1.2l-1.5,0.3l-0.6-1.8
	L543.6,622.6L543.6,622.6z M543.3,619.8l2.5,1.8l0.2,1.8l-2.4-1.1l0.5-1.3L543.3,619.8z M589.2,618.7l1.5,1.3l0.4,2.2l3.8,1.6
	l-1,1.4l-0.6,1l1.9,0.5l-0.1-3.2l1.7-0.3l1.1,1.4l2.4-1.6l8.8,6.8l-0.5,1.4l2.3,0.3l0.3,3l3.1,1.7l-2.8,0.6l1.2,0.8l-1.3,0.2
	l0.5,1.5l-1.4,0.6l0.3,1.8l2.2,0.2l-2.5,1.6l0.5,1.2l3.3-1.9l-0.7,1.2l0.8,1.1l-1.3,0.3l0,0l-2.1,1.3l-7.1-8l-2,2.2l-1.1,4l0,0
	l-3.5,0.3l-9.5,3.9l-4.9-1.8l-3.6,8.5l-1.9-2.7l0.9-3.2l-9.3-5.3l-5.3,3.6l-11.5-6.8l-4,3.8l-5.2,0.1l0,0l-1.7-4.8l0.8-2.9l-0.6-0.4
	l-0.5,1.2l-1.4-4.6l-0.1-0.3l-1.8-1.8l-0.2-3.8l-1.5-2.2l1.4-2.5l3.2,2.1l0.3,1.5l0.8-0.8l1.1,0.6l-0.1-1.3l2.7,1.3v-2.1l2.1,1.6
	v1.1l1.6-0.3l1.7-0.9l-0.9,1.3l0.5,1.2l1-0.1l-0.1-1.8l2.7,1.3h3.4l0.6-0.8l6.9,0.9l5.3,0.2l4.6-2.1l3,1.2l2-0.5l1.1-2.3l-1.8-1.4
	l2.1,0.5l0.3,0.4l2.9,0.3l1.8-1.3l0.5,1.5l-0.9,0.5l2.8,0.4l1.7-1L589.2,618.7L589.2,618.7z M594.6,615.8l1.7,6l-4-1.4l1.4-0.1
	l0.5-1.2l-2.2-0.9l0.1-1.5l0.6-0.9L594.6,615.8L594.6,615.8z M543.5,614.9l2,0.8l0.3,3.2l-2-1.2L543.5,614.9L543.5,614.9z"/>
<path id="PH-NUE_1_" class="st23" d="M290.8,360.8l10.6-1.5l10.8,2.6l1.6,13.7l6.1,10.3l0,0l6.9,21.5l-4.7,21.3l0,0l-5.1-0.4
	l-7.1-5.1l-8.9,1.5l-4.8,2.6l0,0l-4,0.8l-2.4,3.2l-1.5-3h-4.4l-1.1-4.7l0,0l0.7-2.9l-3.1-2.4l0.2-3.3l1.6-2.6l-3.1-9.9l2.3-4.2
	l-4.1-1.1l-3.1-3.3l-3-12.6l0,0l9.5-1.5l5.7,4.5l2.6-2.1l4.7-11.9L290.8,360.8z"/>
<path id="PH-NUV_1_" class="st3" d="M323.8,312.5l4.8,4.5l0.6,3.5l0,0l-2.1,14.3l5.2,1.8l-1,6.7l-10.5,4.4l2.1,18.1l10.6,9.2l0,0
	L320,386l0,0l-6.1-10.3l-1.6-13.7l-10.8-2.6l-10.6,1.5l0,0l-2.8-4.9l-5.3-2.2l0,0l-0.7-3.1l3.4-6l2.9,0.2l3.3-8.5l-0.5-5.4l1.6-6.8
	l0,0l23-3.8l0,0l0.4-0.1l0,0l3.7-1.6l1.3,0.5l-0.4-2l1.9-0.6L323.8,312.5z"/>
<path id="PH-MDC_1_" class="st1" d="M300.5,648.8l1.6,2.8l-2.1-0.3l-0.4-1.4L300.5,648.8z M304.6,644.2l2.5,4.7l-0.5,3.1l1.3-0.6
	l1.5,2.5l-1.2,1l-2.4-1.6l-0.9-2.8l-2.7-0.9l0.4-4.7L304.6,644.2L304.6,644.2z M257.8,553.3l3.8,1.6l6-0.3l4.1,1.5l4-0.3l5.9,2.1
	l10.1-2.6l0,0l-0.6,6.5l-6.3,9.8l13.5,6.4l10.2,6.4l8.6,3.2l0.3,30.5l-1.1,18.6l0.8,14l0,0l-2.5-2.2l-3.7-0.4h-3.4l0.1-1.6l-1.4-1.7
	l1.1-0.8l1.5,1l-0.4-1.8l-1.1-3.2l-1.4-0.5l-1.2,1.2l-2.3-1l-8.4-10.8l-0.4-2.7l1.4-2.8l-0.7-2.4l-4.6-5.7l-0.6-2l-4.8-1.2l-0.5-6.6
	l-1.7-1.3l2.3-4.9l-1.3-1.9l-0.5-2.7l-0.1-0.8l-2.2-5.8l-6.1-9.8l-3.2-0.8l-2.7-2.2l-3.5,0.4l0.1-3.1h-1.4l-1.6-2l0.4-1.9l-1.5-4.2
	l0.5-1.7l-0.9-1.3l-1.9-0.9l-3.2,1.2l0.3,1.8l-1,0.8l-2.7-0.5l-2.6-2.8l-0.8-1.9l2-3.3l2.7-1.8L257.8,553.3L257.8,553.3z
	 M249.2,541.7l5.5,2.1l2.1-0.1l0.8,2l-2.6-0.4L249.2,541.7z M248.1,530.3l3.3,2.2l-0.2,1.3l-1.6,1.1l-3.7-2.4l1.6-0.5L248.1,530.3
	L248.1,530.3z M233.6,528.2l3.3,0.7l4.7,3.3l1.5-0.8l4.8,6.4l-1.9-0.1l-0.8,1.2l1.5,1.2l1.2-0.5l0.5,1.8l-1.3-0.1l-0.8,1.2l-1-2.4
	l-2.3-0.5l-1.4-1.8l-2-0.1l-5.4-3.6l-0.4-3.8l-1.3-1L233.6,528.2L233.6,528.2z M229.5,525.6l1.7,1.6l-0.8,0.9l-2.2-1.4L229.5,525.6z
	"/>
<path id="PH-MDR_1_" class="st20" d="M297.8,557.6l6,4.7l2.4-0.8l1-0.2l2.4,0.6l3.3-0.5l1.3-1.5l4.7,6.1l0.2-0.8l2.7,1.5l5.5,7.9
	l2.5-0.2l2,1l0.1,6.2l1.9,0.7l2.9-1.2l3.5,2.4v2.2l-3.8,2.6l-1.3,2.7l0.9,5.9l-1.2,2.6l0.8,4l-1.3,5.5l5.3,7.7l-0.2,1l0.1,1.8
	l-1.5,2.6l-0.1,0.4l-1.5,3.2l-3.1,2.2l-1.8,0.1l0.5,3l-2.6,2.4l0.2,3.5l2.9,2.8l-5-0.2l1,5.5l-1-0.6l-1.1-0.3l-0.1-2l-1.5,0.1
	l-0.9,2.3l-4.1,0.7l-2.5,5.5l0,0l-0.8-14l1.1-18.6l-0.3-30.5l-8.6-3.2l-10.2-6.4l-13.5-6.4l6.3-9.8l0.6-6.5l0,0l1.6-1l2.1,0.7
	l0.8,0.1L297.8,557.6L297.8,557.6z"/>
<path id="PH-PLW_1_" class="st15" d="M14.5,953.7l0.4,4.1v1l-0.2,1l0.8,6.2l-1.3,0.6l0.8,1.2l-1.3,2.8l-2.5,2.2l-0.1,0.4l-1,0.3
	l-1.4-0.8l0.5-2.6L8,969.9l-1.9-4.3l-1.5-0.1L4,963.7l1.2,0.5l1.6-1.5l-1.2-3.5l1.2-4l0.1,2.8l2.6-1.9L9,954.7L14.5,953.7
	L14.5,953.7z M11.3,949.7l1.6,0.9l0.9,2.4l-3.4,1l-0.5-1.5L8.5,952L11.3,949.7L11.3,949.7z M19.4,946l3.5,0.1l1.2,1.8l-4.1,0.2
	l-1.2-1.6C18.7,946.5,19.4,946,19.4,946z M15.7,941.1l1.8,0.5l0.9,1.9l-3.1-0.1L15.7,941.1z M32.6,935.5l2.1,2.4l-0.4,5.9l-3.8,2.3
	l-2.2-2.2l0.4-6.9l0.8-1.3L32.6,935.5L32.6,935.5z M25.9,936.4l2-0.2l-0.1,1.9l-2.7,1.9l-3.2,0.5l-1-2.2l2.2-0.3l2.8-3.5L25.9,936.4
	L25.9,936.4z M166.2,770.1l-0.1,1.1l1-0.7l-1.6,1l-0.9,1.2l-1.6,0.1l1.2-1.6l-1.1-1.2L166.2,770.1L166.2,770.1z M214.5,765.4
	l2.4,2.2l0.5-1l2.6,2.7l5.7-0.1l1.5,2.6l-1.3,1.1l-0.6-1.4l-0.6,1.7l0.9,1.1l-2.6,0.9l-0.2-1.2l-1,2.3l-1.5-0.9l-0.4-2.2l-1.4-0.3
	l2.8,4.9l-0.8,0.7l-4.1-0.8l1.3,1.7l-5,1.5l-3.1-1.7l0.2-4.7l-1.1,0.7l0.1-2.5l1-0.9l2.1,1.3l0.8-2.8l2.2-2.1L214.5,765.4
	L214.5,765.4z M304.7,746.5l0.7,1l-1.4,1.3l1.5,1.5l-1.6,1.2l0.5,2.3l-3.1,0.7l-1.7-2.3l0.4-1.9l3-1.2l0.4-2.3L304.7,746.5
	L304.7,746.5z M175.5,738.1l1,0.5l-1.2,2.4l0.8,1.8l-0.6,0.8l-2.2-2.5l0.5-2.7l1.1,0.5L175.5,738.1L175.5,738.1z M205.7,735.5
	l1.2,2.1l-1.8,0.1L205.7,735.5z M204.3,734.4l0.7,0.6l-1.6,2.6l-0.3-1.9L204.3,734.4z M196.8,732.4l0.4,0.9l2.6,0.2l-0.5,1.8
	l1.8,2.6l-0.7,2.2l-0.3-2.1l-1.4,1.3l-0.9-2.1l-2.7-0.7L196.8,732.4L196.8,732.4z M204.2,730.6l0.8,2.3l-1.5,1.3l0.5-1.4l-1.2-1.9
	L204.2,730.6L204.2,730.6z M298.2,727l0.5,1.4l-1.6,1.5l-1.5-0.1l-0.5-1.4L298.2,727z M198.3,725.6l1.7,0.4l-0.2,1.8l-1.4,0.8
	l-0.7-0.8l-0.1,1.5l-2.3,0.2l-0.5-2.6l2.4-0.1l0.2-1.3L198.3,725.6L198.3,725.6z M204.8,716.1l-1.3,4.3l-1.6-2.7L204.8,716.1z
	 M189.1,708.6l1.9,0.7l0.4,6.1l1.9,0.8l1.2-1.3l1.1,3.6l-2.2,8.6l-2.7,3l2.6,4.7l1.7-1.1l-0.7,1.7l1.4,4l-0.6,0.8l-1.8-1.3l-2.5,0.4
	l-1.4,9.8l1.8,1l0.1,2.3l1.7,1.2l2.9-1.8l1.8,1.2l-0.1,1l-1.4-0.3l1.1,1l-1.3,1.1l1.3,1l-0.6,1.9l1,1.5l-2.2,4.4h3l1.8-2l1.6,1.3
	l-0.6,0.7l1.4,0.7l-3.3-0.2l1.2,1.8l-1,1l2.1,1l1.1,4.6l2.4,0.1l-0.8,1.1l1.1-0.3l0.6,1.8l-2.9,1.1L200,781l-3.4,1.5l-1.1,3.7
	l-4.3,0.8l-3.9-1l-2.1,1.7l-4,0.5l-1.5,2.2l-2.1,0.2l-5.8,8.1l-1.8,9.1l-1.5,2.2l-16.2,4.7l-5.3,0.7l0.1-1.1l-3.5,1.3l-2.2,2.4h-3.6
	l-1.6,0.8l-0.6,5.9l2.4,3.2l-0.3,5.5l-2.8-0.7l0.5-1.7l-1-2.5l-0.7,1.3l-1.3-0.5l-0.5,1l0.3,3.8l2.5,0.3l0.1,0.6l0.4,1.4l1.9-0.5
	l-0.1,1.5l-1.8,1.2l-0.3,1l-3.8,5.1l-2,1.1l-1,3.4h-1.2l-4.1,6.1l-0.2,0.5l-1.9,1.9l0.2,2.2l-3.8,3.8v1.1l-1.6-0.6l-1.7,1.9
	l-0.8-0.2l-0.7,2.5l-1.8,0.2l-3.8,4.7l-3.6-0.3l-5.3,1.8l-0.9-0.8l-4.4,2.5l-1.8-0.8l-1.4,3.1l-0.2,3.7l-2.4,0.4l1.2,1.2l-0.3,1.2
	l-1.6,0.4l0.6,1h-0.8l-2.9,6.6h-1.1l0.2,1.8l-8.4,3.8l-3.4,4.3l-2.3,0.3l-2,3.8l-2.8,2l-3.6,0.1l-5,2.1l-4.2-1.2l-2.2,2.3l0.8,3.4
	l-3.4,7l-1,0.5l-2.2-2l-1.2,1.5l-0.5,0.5h-4.2l-0.3,1.3l-7.7,5l-1.9,2.8l-2.1,0.5l0.8,0.8l-0.8,1.2l-2,0.1l-0.2-2.6l2.7-4.5l0.2-6.7
	l1.5-1.7l-0.2-2l2-0.8l-0.8-2.2l1.3,0.5l1.7-4l2.8-1.3l0.7-1.8l-1.5,0.2l2.7-3.5l4.7-1l-0.4-2l2.7-1.9l0.8-3.2l1.2-0.4l3.3-5.3h1
	l0.4-1.7l2.6-0.3l2.8-2.8l0.6-3.5l2.5-2l1.6,0.1l0.3-1.2l0.7,1.9l3.3-0.3l0.9-4.1l1.5-1.4l-0.3-1.5l2.6-2.4l1.1,0.7l1.7-1.9l0.9,0.4
	l3.2-3.8l3.4,0.7l2.1-2.1l0.2,2.6l2.6,0.1l0.3-1.6l1.8-1l0.2-1.6l1.3,0.1l1.3-1.3v-1.2l2.8-0.7l-0.8-2.3l0.8-1.7l4.2-1l0.9-4.4
	l2.9-1.6l4.4-5.2l2.2-1.3l0.8-5l1.2-0.6l1.3,0.9l2.3-1.3l1-3l6.6-4l4.2-6.2l2.7-1.9l0.7-1.6l-0.7-1.7l2.9-1.4l-0.1-1.9l1.4-1.1
	l-1.4-2.1l1.1,0.4l3.2-2.9l1.4,0.2l0.3-2.5l1.4-1l1.2-3.6l0.9,4.6l0.1,0.8v2.6l1.4,0.1l1.1-0.5l0.1-2.9l2.1-2.7l-2.3-0.8l-0.1-5.5
	l2.4,0.4l1.9-1.7l2.2,1l3.2-0.9l0.9-3.2l-1.1-0.9l1.8-0.4l-2.1-1.4l0.8-0.8l1.6,1.1l0.4-1.9l1.3,0.7l1.1-0.8l-0.7-0.7l0.9-1.6
	l1.5,0.3l-0.8-2.6l-2.9,2.2l-0.7-1.8l1.9-1.5l-0.4-1.2l1.9,0.2l0.9-0.9l2.8,2.1l0.9-1.6l-0.9-1l2,0.3l1-1.2l-1.3-0.7L160,780
	l0.2-0.9l0.4-1.3l0.7,0.7l0.4-1.1h1.2l0.5,0.9l-1.2,1l1.4,1l-0.8,2.5l1.9,2.2l0.2-1.3l2.5-0.9l2.9-5.1l2.9-0.2l0.9-2.2l-2.9-2.5
	l2.7,0.7l3.8-3.9l1.8-10.6l-2.7-2.8l-2.3,0.7l-0.9-4.9l-3.9-1.3l0.2-0.9l2.5,0.1l-0.3-0.9l0.2-1l1.1,0.1l-1.4-1.7l-1.9,0.2l1.3-2.1
	l-1.3-0.4l0.4-1.1l1.6,0.3l0.1,2.9l1-0.4l-0.6-1.2l1.1-1.1l1.4,0.8l-0.7,0.9l1.3,1l-1.2,1.3l1.5,0.1l-2.4,1.5h3.1l-1.8,1.7l2.1,1.3
	l0.4-1.2l1.1,2.7l0.9-1.2l0.9,0.4l-0.8,1.5l3,0.5l1.3,1.5l-0.5,1.3l1.4-0.8l1.1,3.5l2.3-0.4l-2.1-5.5l-0.1-2.3l1.3,0.2l0.2-1.1
	l-2.7-0.9l-0.2-1.1l-3,1l-0.6-1.1l-1.1,0.1v-1.7l-1.1,0.1l2-3.2l-0.9-0.8l-1.6,1l-1.3-0.7l0.2-0.7l-0.7-4l1.2-2l1.5,3l2.4-0.8
	l-3.3-2.4l1.2-1.3h-1.5l0.2-3.7l1.1,1.5l1-0.3l-0.5,1.1l1.8,2.2l3.2,0.5l-0.2-5.3l0.9-2.1l-1.2-0.5l-0.7,1l-0.3-2.6l1.5-3.1
	l-0.5-7.5l1.1-0.4l0.4-2.1l1.4,1l1.6-2.3L189.1,708.6L189.1,708.6z M213.5,701.5l3.5,0.7l0.6,1.3l-0.1,2.9l-2.7,5.4l-0.9,0.2
	l-1.3-1.8l1.7-1l-0.1-1.1l-1.3,0.9l-1.4-0.7l-0.9,2.2l-1.2-2l-2.2-0.8l0.5-1.5l-1.6-0.8l1.2-1.1l-0.1,1l3.1,2.1l-0.2-1.5h1.4
	l-1.6-1.3l1-0.2v-1.1l1.8,3l0.9-0.2l-0.4-1.3l1.9,1.1l-0.8-1.9l1.7-0.2L213.5,701.5L213.5,701.5z M237.3,683.5l2.4,0.1l0.2,1.3
	l-2.9-0.4L237.3,683.5L237.3,683.5z M239.8,682.2l1.3,0.5l0.2,1.8l-2.2-2.3H239.8L239.8,682.2z M220.1,667.9l1.5,1.5l3.5,0.7
	l-2.2,0.4l0.8,2l-0.8,0.3l1.3,0.4l-0.1-1.7l1.2,0.7l1.1-1.2l2.2,0.2l0.3,1.2l-2.9,1.3l2.6,0.3l1.3,2.2l0.5-0.9l1.9,1l-3.9,1.4
	l2.2,0.2L229,679v1.4l0.9-0.6l2.2,1.9l-2.8,2.3l1.7,0.1l-0.6,2.8l-5,3.8l-0.8,0.1l-0.9,0.5l-1-0.2l0.7-0.8l-0.9-0.4l-0.1-3.9
	l1.1-0.8l3.6-3.3l-1.3,0.2l-0.9-0.4l-0.7-0.7l-0.1,2.6l-2.4,0.3l-1.7-2.4l-1-2.8l1.5-1l-3.3-3.8l0.1-2.4l-1.8-1.4l0.5-0.6l2.7,2.3
	l0.2-1.5l-1.4-0.7l-0.1-1.3L220.1,667.9L220.1,667.9z M245,667.3l1.7,1.1l0.4,2.5L245,673l2.9,0.1l0.4,1.6l-0.1,1l-2.6,1l-0.7,0.6
	l-4.1-6.5L245,667.3L245,667.3z M219.5,642l2.1,0.7l-0.2,1.5l1.1,1.1l-0.7,0.9l6.1,1.2l2.4,2l1.1,2.7l2.7-0.8l-0.1,1.8l4.7,4.1
	l1.7,0.2l0.1-1.5l1.8,0.4l-0.6-2.1l1-2.7l-1.1-1.7l1-0.5l0.4,2.1l1.4-0.1l0.2,5l0.9,0.5l1.1-1.4l0.8,2.2l1.1-0.3l0.4,1.5l1.8,0.5
	l0.6,2.7l-1.2,1.3l1.1,1.8l-0.3,1.5l-1.3-0.6l-1.4,1.4l-3.4-1.8l-2,1.8l-3.4-1.9l-0.6-1.5l-1,0.6l-1.8-0.8l-0.6,1l1,1.2l-0.8,0.9
	v0.8l-1.4,1.3l-1.4-1.9l0.6-0.9l-2.4-1.5l-0.5,1.7l-1.9,0.5l-0.5-1.3l-2.6-0.2l-0.4-1.1l-0.3-3l-1.2,0.6l-1.1-1.3l-0.3-1l-0.1-3.6
	l-2.2-2l-0.3-2.8l-1.1-0.1l-2,4.1l-0.3-2.1l1.9-3.4l-1.2-0.8v-1.3l0.6-1.2l0.9-1.5l-1.1-1.5L219.5,642L219.5,642z"/>
<path id="PH-PAM_1_" class="st11" d="M253.9,431.1l1.3,0.2l13.4-7.1h4.7l1.4-0.9l3,1l3.1-1.7l0.2,1.2l2-0.3l0,0l1.1,4.7h4.4l1.5,3
	l2.4-3.2l4-0.8l0,0l0.1,3.1l-1,1.6l3.2,4l-1.2,1.7l-0.2,3.3l-2-0.1l-1.3,3.1l-0.2-1l-1.5,0.3l0.2,2l-4.7,3.8l-6.4,0.6l0.1,2.4
	l-3.2,5.1l0.3,1.4l-3.4,1.9l0,0l-0.6,0.5l-2.4-2.2l-2.4-1.2l0.5-0.9l-1.2-0.4l0,0l-1.9,0.5l-1.9-1.2l-1.6-2l-0.4-3.2l-2.7-1.4l0,0
	l-0.7-2.5l-2.2-2.1l0.1-4l-1.3-2.6l-2.8-2l-0.6-2.3L253.9,431.1L253.9,431.1z"/>
<path id="PH-PAN_1_" class="st11" d="M226.2,342.5l0.7,2l1.6,0.6l-1.7,2.8l1.4,2.7l-1.8,1.4l-2.1-3.5l-1.2,0.1l0.2-1.1l-1.1-1.1
	l-1,0.8l-0.4-1l1.9-0.8l-0.4-1l0.9-0.8l-0.2,1.5l1.1,0.6l0.2-2.9L226.2,342.5L226.2,342.5z M220.6,384.2l-1.8-0.9l0,0l-0.4-0.7
	l2.2-1.8l-3.7-8.7l-1.1-1.2l-0.2,0.9l-2.3,0.2l-0.6,2.5l-1.4-0.7l-0.9,1.3l-1.6-3.8l0.7-3.5l1.1-0.9l-1.3-1.9l0.5-4.4l1.4-2
	l-0.8-2.3l-1.3-0.5l2.2-5.1l-0.8-0.7l0.5-4.5l2.6-3.7h2.9l2-2.7l3,1.9l-0.7,9.5l1-0.6l2,1.1l0.5,0.3l1.2,0.5l-0.3,1.4l2.1,1l1.2,1.9
	l0.7-1.7l1,0.6l0.3,0.4h1.8v1.2l1.1-0.6l1.7,1.9l-0.4,0.8v0.7l-1.2,1.4l1.8,2.1l-1.1-0.1l-0.2,0.9l3.4,2.2l5.8,0.3l7.4-2.5l0.2,0.7
	l6.9-7.8l-0.6-3.5l0,0l6.1-0.2l1-1.9l0,0l10.4,3.7l8.2-1l0,0l5.3,2.2l2.8,4.9l0,0l3.1,9.5l-4.7,11.9l-2.6,2.1l-5.7-4.5l-9.5,1.5l0,0
	l-1.8-4.3l-2.9,8.9l-4.9,3.1l-6.4-2.7L253,389l-0.5,2.4l-2.6,2.2l0.5,1.4l-5.1,2.4l0,0l-4.9-8.1l-2.7-7.3l-4.6,1l-4.1-2.6l-2.8,4
	h-2.3l-0.7-1.4L220.6,384.2L220.6,384.2z M222.1,336.7l2,2.5v1.8l-3.7-1.2l0.1-2.7L222.1,336.7z"/>
<path id="PH-QUE_1_" class="st20" d="M354.4,522.3l2.4,0.3l-0.3,2l1.2,1l-0.8,1.4h-0.8l-1.9-0.3l-1-0.7l-0.1-1.9L354.4,522.3z
	 M369.6,503l11.8,8.6l4.5,5.9l-2.4,0.5l-7.4-4.6l-1.4-2l-3.8-1.6l-5.3-6.1l1.2-3.1L369.6,503L369.6,503z M359.6,495.5l1.8,0.3
	l-2.4,3.8l-1.2-3.3L359.6,495.5z M401.9,463.8l2.1,2.1l-1,1l-8.5,0.8l2.1-2.6L401.9,463.8L401.9,463.8z M381.8,456.4l3.6-1.2
	l1.1,1.1L386,458l3.1,1.6l1.7-0.3v4.8l-1.1,0.5l-1-2.3l-8.9-4l-1-2.8l1.8,0.8L381.8,456.4L381.8,456.4z M373.8,452.6l0.2,0.8h2.6
	l1.6,2l-1.6-1l-1.4,1l-1.4-0.4l-0.9-2.1L373.8,452.6L373.8,452.6z M368.5,439.3l1.8,0.6l-0.3,0.9l1.6-0.6l2,1.1l-0.7,1.7l2.9,0.1
	l0.5,3.2l-0.2,0.8l-1.7-3l-1.5,0.3l-1.4,2.2l2-0.8l0.1,3.6l-3,1.5l-0.9-0.5l1,4.9l2,0.6l1,1.7l1,7.1l-2.5,3.6l-4.7,3l-1.7-1
	l-0.9-2.7l0.1-3.6l1,1.3l1.4-0.4l-2.1-6.8l-2.2-2.5l-3.2-8.9l-0.8-0.1l0.5,2.1l-0.7-0.6l-0.8,1l-0.6-1l1.3-4.8l1.2-0.5l0.1-2.4h1.4
	l0.7,1.3l4.8-2.6l1,1L368.5,439.3L368.5,439.3z M324.3,443.8l0.7-1.6l-0.7-1.9l4.1-6.1l0.1-2.2l-1.3-1.3l1.7-0.5l-0.2-1.6l1.3-1.1
	l0,0l2,1.4l1-0.5l1.5,1.7l1.8,9.4l4.4,6.5l1,5.8l2.3,2.8l-0.8,2l9.6,9.8l-2.4-0.5h-1.1l-3.7,2.6l-1.1-1.4l-1.1,2.5l4.1,19l4.9,5.2
	l0.1,4l2.2,2.1l-0.4,3l-1.9,1.9l0.4,1.1l2.8,3.2l-0.7-0.8l13.2,10.6l11.1,4.8l6.6,0.6l3,1.5l0.9-3.5l-3.2-1.2l-1.2-2.6l8.5,2.7
	l0.5-1.1l-0.9-1.4l1.7-0.6l0.5-1.4l-2.4,0.2l-0.2-1.6l-6.9-4l-2-3.5l0.1-1.4l1.6,1.5l-0.4-1.8l2.4-2.1l1.3-0.3l0.9,1.3l0.3-4.9
	l1.7-0.2l0.3,0.8l-1.3,4.6l1,0.9l-0.4,2.8l1.3,0.3l1.8-1.3l-0.7,4.1l0,0l0.1,1.1l4.7,0.2l5.6-6.2l25.3,10l0,0L412,522l0,0l-1.5-0.8
	l-0.3,2.8l-5.4-0.2l-2.3-2l4.9,7.8l2.8,2.3l-1,0.5l-0.1,2.9l1.1,2.8h-2.4l-0.8,1.5l1.6,3.6l-0.4,1.3l3.5,3.4v1.3l6.4,4.1l0.1,1
	l-1.3,0.1l-2.6-3.5H413l6.2,8.5l1.9,5v7.8l1,0.5l0.9,3.3l-3.3,1.1l-4.3,3.5l-2.5-1.2l-4.3-4.7l1.4-2.8l-1-1.1l0.9-1.2l-0.5-2.8
	l-2-4.4l-5.5-5.7l-0.8-2.9l-5.1-2.7l0.5-1.2l-1.2-1l-2.3-0.1l-0.7,1.2l-1.4-0.5l1.2-0.8l-0.9-0.9l-4.2,0.3l-0.4-2.7l-3.8-6.1h-0.9
	v-1.9l-2.9-3l-1.9-0.4l-1.3,1.2l-2.2-1.6l0.2-0.8h-3.4l-0.6-2.6l-5.9-1.6l-1.4-2.5l-1.2,0.8l-1.5-1.2l-0.7,0.8l-1.2-1.7l0.5-2
	l-0.8-0.6l-1.6,0.7l-2.5-2.1l-3.9,0.5l-0.4,0.9l1.2,2l-6,1.1l-0.6,1.3l-1-1l-7.9,3.8l-2.7,2.4l0,0l-5.2-2.2l-1.1-1.5l-7-0.5
	l-2.5-3.5l0.5-1.2h1.5l-0.3-1.8l0,0l5-1.6l7.4-5.8l4.5-0.7l2.2-5.4l1.9-1.9l1.2,0.1l4.8-6.7l-0.6-9.9l-1.9-0.2l-1.6-1.6l-1.1,0.7
	l-6.5-12.4l0,0l-8.6-15.3l-0.4-8.3l0,0L324.3,443.8L324.3,443.8z"/>
<path id="PH-QUI_1_" class="st1" d="M329.2,320.5l10.8,0.9l14.4,18.1l23.7-10.8l3.6,0.3l0,0l-4.8,3.2l-16.7,19.5l-26.7,23.4l0,0
	l-10.6-9.2l-2.1-18.1l10.5-4.4l1-6.7l-5.2-1.8L329.2,320.5z"/>
<path id="PH-RIZ_1_" class="st10" d="M317.1,493.5l0.1,2.8l-1.9-4.5l0.5-5.3l1.2,5.5l1.8,0.8L317.1,493.5L317.1,493.5z M318.6,480.3
	L318.6,480.3L318.6,480.3L318.6,480.3L318.6,480.3L318.6,480.3L318.6,480.3z M318.2,480.3L318.2,480.3L318.2,480.3l0.2-0.2l0,0
	L318.2,480.3L318.2,480.3z M318.2,479.7L318.2,479.7L318.2,479.7L318.2,479.7L318.2,479.7L318.2,479.7L318.2,479.7z M324.6,451.6
	l0.4,8.3l8.6,15.3l0,0l-3.8,1.3l-3.1,3l-1.1,4.6l1.1,4.4l-0.5,2.3l1.5,1.7l-5.8,4.1l-0.2-2.8l2.5-6.2l-0.9-3.8l-1.7-1.7L320,482
	l-0.2-2l-1.9-0.3l-1.3,3.2h-1.1l-0.2,4.7l-3.8-7.6l-2-1.5l-2.2,0.2l0,0l-0.9-2.8l1.2-1.7l-0.6-2.7l1.9-0.6l0.3-1.7l-2-1.3l2-4.7
	l-1.2-0.1v-1.4l0,0l4.6-3.3l0.4-1.7l5.5-1.1L324.6,451.6L324.6,451.6z"/>
<path id="PH-ROM_1_" class="st24" d="M367.5,659l1.8,2.3l-0.5,2.5l-3.2-2.3l0.3-1.6L367.5,659z M411.8,628.8l7.9,1.6l3.2,6l-1.2,5.3
	l-3.5,3.3v1.2l-1.8-2.1l-3.5-1.2l-1.5-3.6l-6.6-2.7l-1.8-2.7l0.3-1.7l2.4-2.3L411.8,628.8z M392.8,620l0.9,0.5l0.7,4.3l1.5,1.3
	l0.1,2.6l-1.9,2l-2.2-0.9l-1.6-3l0.9-0.9l-1.3-2.2l1.7-0.3L392.8,620L392.8,620z M380.5,616.4l2.8,1.1l0.6,2.1l-2.4-0.2l-0.5,1.2
	l1.3,2.7v3.2l-2,2.9l-1.7,13.7l-3.4,6.3l0.2,2.7l0.9-0.4l1,1.3l-0.7,0.7l-1-0.7l-1.6,1.8l-0.7,4.2l-2.3-3.2l0.5-1.4l-1.8,0.3
	l-0.6-2.4l0.7-3.7l0.5,3l1,0.6l2.1-3.2l-2.7-2.2l-1,0.5v-1.6l-1.3-0.1l-0.4-1.5l-1.2,0.8l-0.4-2.3l1.2-1.2l-0.8-0.8l1-3.5l3.3-1.2
	l1.3-2.6l0.7-3.7l-1.7-5.6l0.7-2l2.8-1.8l2.6-0.1l3.1-2.5L380.5,616.4L380.5,616.4z M378.3,604.3l-1.8,4l-2.2-0.2v-1.2L378.3,604.3z
	 M350.7,596l2.3,1.5l-1.5,2.5l-2.6-2.5L350.7,596z M378.1,595.1l1.3,0.3l-0.7,2.9l-2.3,0.9l-0.4-2.4l-1.4-1L378.1,595.1z"/>
<path id="PH-WSA_1_" class="st9" d="M577.7,688.7l2,0.1l0.7,1.3l1.5-0.4l0.3,1.1l-1.7,1.2l0.7,1.9l-3.3-0.6l0.3-2.8l-1.4-1.1
	l0.1-1.8L577.7,688.7L577.7,688.7z M570.4,686.3l0.5,1.8l1.3,0.5l-0.1,1.3l2-1l-1,1.6l2.9,1.8l-1.4,1.9l0.6,1.4l0.8-0.7l3.2,0.7
	l-1.4,1.6l0.6,2.4l-1.2,1.3l-2.3-1.4l1-1.3l-2.9-0.6l-0.3-2.5l1.5,0.9l0.5-0.8l-2.9-3.2l-0.9,0.7l-0.4-2.5l-0.9,0.5l0.3-2l-0.6-0.8
	l1-0.7l-1-0.9H570.4L570.4,686.3z M571.8,685.3l2,1l-1,2l-1.3-1L571.8,685.3L571.8,685.3z M563.9,672l0.1,0.8l1.5-0.1l-0.5,1.5
	l-1.7-1.4L563.9,672L563.9,672z M549.8,671.5l1.2,2.9l-1.2,0.7l-2.4-0.8l0.4-2.2L549.8,671.5z M541.4,669.1l0.5,1.6l-2,2.7l-2.3,0.3
	l0.1-2.3L541.4,669.1L541.4,669.1z M548,666.9l1,0.9l-0.7,1.6l-1.7-0.8v-1.4L548,666.9L548,666.9z M533.6,660.1h1v1.8l-1.6-0.7
	l-2.8,2.7l-2.2-1.1l1.7-2.3L533.6,660.1L533.6,660.1z M543.2,645.3l5.2-0.1l4-3.8l11.5,6.8l5.3-3.6l9.3,5.3l-0.9,3.2l1.9,2.7
	l3.6-8.5l4.9,1.8l9.5-3.9l3.5-0.3l0,0l-0.5,7.4l-2.4,1.6l0.2,12.7h6.7l4.5,10.4l0.9,13l-4.4,3.2l-1,2.6l1.8,11.4l4,1.4l1.5,2l-4.2,6
	l0.3,14.7l0,0l-1.3,2.3l-1.9-0.9l-1-6.2l-3.2-6.8l-5.8-0.8l-4.7,1.3l-2-1.2l-0.4-2.8l1.7-2.2l-0.9-5l-1.5-0.8l-0.3-1.6l-1.3,0.3
	l-2.8-1.6l0.2-1.4v-0.6l-1.3-0.8l0.1,3.3l-0.8-0.8l-2.8,0.5l-1.4-1.9l0.8-0.5v-0.9l1.9-3.3l1,1.6l1.6-0.4l0.4-1l-1.6-0.4l0.3-1.4
	l4.8,0.4l1.3-0.9l-0.6-1l2.1-1.5l-0.8-4l4-3.1l0.8-1.5l-0.2-1.7l-3-1.5l-6.4,2.9l-1.7-1l-0.4-1.8l-1.7-1V680l-6.1-3.7l0.2-1.1
	l1.6-0.7l-0.7-1.2l-2-0.3l0.4,0.8l-2.2,0.1l0.9-1.3l-0.5-1l1.9-0.7l-4-0.8l-0.9-2l0.7-0.3l-1.4-1.6l-0.2-0.5l-3.6-3.2l-3-1l-4.9,0.2
	l-5.5-5.4l-0.2-1.4l-4.3-3L543.2,645.3L543.2,645.3z"/>
<path id="PH-SAR_1_" class="st5" d="M618.7,1145.3l2.2,1.1l-0.6,3.9l-1-0.8l-4.1,0.7l-0.2-1.4l-1.4-0.2l3-2.9L618.7,1145.3z
	 M624.6,1141l1.5,2l-0.5,3.4l-1.6,2.3l-1.5-3.4l1.6-1.5l-1.3-0.8l1.9-0.1l-1.1-0.9L624.6,1141L624.6,1141z M546.1,1089l10.8,4.7
	l2.8,3l5.8,1.9l9.5,5.1l16.2,0.6l2.6-4v7.1l3.7,0.3l0,0l-0.3,3l-1.6,1.5l0.9,1.5l-1,1.1h-10.9l-7.3-2.2l-13.2-6.9l-2.7-0.1l-1.8-2.1
	l-4.3-0.6l-6.7-4.6l-5.4-2.3l0,0L546.1,1089z M602.3,1070.4l5.7,3l5.1-2.3l2.3-3.5l5.2,1.5l4.5,6.6l0.5,4l-2.4,2.6l3.4,5.1l0.4,7
	l2,2.2l-0.2,3.6l-3.9,10.8l0.5,4.2l-1.3,0.9l-0.1,2l-5.4,11.4l-6.3,4.7l1,1.4l0,0l-2-1l1.1-3.5l-1.6-4.5l-3.5-1.9l-1.5-3.6l-2.5-0.5
	l0.5-1l-1.2-1.1l0.5-2.6l1.9,0.9l1-2.6l-0.5-1.8l4.2-2.2l-0.5-1.3l1.9-3.1l-1.3-7.7l-2.3-1l0,0l-0.4-5.4l2.8-4.9l-0.1-2.4l-14.2-5.1
	l2.8-5.8h2l1.1-3L602.3,1070.4L602.3,1070.4z"/>
<path id="PH-SIG_1_" class="st8" d="M488.6,864.3l2.1,0.4l2,4.2l1.8,1l-2.2,2.4l3.3,3.2l-1.5,1.8l-2.9-0.3l-1.3,1.7l-2.5,0.5
	l-2.1-0.5l-7.8-6.7l1.3-2.3l2.2,0.8l4.3-0.9l2.4-1.8L488.6,864.3z"/>
<path id="PH-SOR_1_" class="st11" d="M513.6,584.4l1.7-0.2l3.6,4.2l3.1,1.4l1.4,2.3l1.7-4.3l1.8-1.1l4,0.6l0.7,0.9l-0.1,1.4L531,590
	l0.7,0.9l-1.8,1.1l-0.5-1.7l-0.7,0.6l-1.1,6.3l-1.9,1.8l0.7,1.3l1.5-0.3l0.6,6.4l-1.8,5.7l0.3,4.6l-3,2.5l1.1,3l-1.8,0.9l1,1.2
	l-1.3,2.2l-6.6-0.6l-3.8-4.1l-0.1-2l-1.3,0.7l-0.6-1.6l-2.5-1.2l-3.3-12.7l0.4-0.7l2-1.7l-0.4-1.1l5.5,2.3l1-2.3l2.7-0.3l0.7,1.2
	l1.6-1l1.8-3.9l-1.4-3.2l-4,1.3l-2-0.2l-1.4-1.6l-2.6,0.1l-0.2,2.1v0.8l-1.6,1.2l-0.3,1.7l-1.3-0.5l-0.6,2.1l-0.9-1.1l-1.5,2
	l-2.4-1.8l-0.1,1.7l-2,1.4l-0.4-1.9l1.2-0.8l-0.8-1.1l-1.9,1l-0.1,0.4l-1,1l-1.5-3.2l0.7,0.4l0.3-0.9l-0.3-0.5l-2.5,1.9l1,0.5
	l-0.7,1.4l-4.6-2.5l-2.3-3l-1.4-0.3l-0.6,0.9l-3.5-3.8l0,0l6.8-3.1l4,1.5l3-1.2l4.6,0.2l2.5,2.8l6.5-4h3.4l2.6-5.7l0,0L513.6,584.4
	L513.6,584.4z"/>
<path id="PH-SCO_1_" class="st5" d="M546.1,1089l-5.7-2l-2.7-6.3l19.1-0.5l3.7,1.3l3.6-6.1l-0.3-3.2l-1.5-0.9l0.1-2.3l-0.9,0.1
	l-0.5-1.9l2.8-7.8l1-0.5l1.3,2.1l5.6-5.2l6.1,10.1l26.3-0.3l0,0l0.1,1.9l-2,3l0,0l-1.1,0.4l-1.1,3h-2l-2.8,5.8l14.2,5.1l0.1,2.4
	l-2.8,4.9l0.4,5.4l0,0l-5.5-0.6l-1.6,6.2l-2.9,4.7l0,0l-3.7-0.3v-7.1l-2.6,4l-16.2-0.6l-9.5-5.1l-5.8-1.9l-2.8-3L546.1,1089z"/>
<path id="PH-SLE_1_" class="st15" d="M600.7,767.5l3.1,3.3l-2,3.2l2,4.4l-0.9,3.3l2.6,3.2l1.8-0.7l1.3,1.7l0.7,5.3l-1,2.9l-2.5,0.9
	l-6.4-2.1l0.5,7.6l-0.8,0.8l2.5,2.1l3.5,0.4l2.3,6.3l2.6,3.5l-0.7,1.8l1.9,2.6l-0.4,1.4l-2.6,0.1l-0.6-2.5l-1.8-1l-2.7-5.5l-3.7-1.8
	l-1.3-3.7l0.4-4.7l-2.8-2.9l-4.2-11.1l-1.2-0.9l-2.9,0.5l1.3,8.7l-0.7,3l3.4,9.2l0.3,6.1l-6.7-5.6l-2.3-0.6l-1.1-2.3l-8.1-0.9
	l-1.5-1.8l0.2-2.5l0,0l1.2,0.5l5.2-5l3.8-0.8l-0.5-10.2l3.4-8.8h8.2L600.7,767.5L600.7,767.5z"/>
<path id="PH-SUK_1_" class="st25" d="M524.5,1050l12-0.3l1.2,2.1l16.6,0.1l5-5.3l-1.7-4.8l7.4-1.6l-0.2,0.9l2.9,0.2l-2.1,6.1
	l5.8,0.1l2.3,7.9l1.5,1.7l6.2-0.5l8.6-4.7l0,0l8.5-2.6l0,0l2.3,1.7l-1.5,0.7l0.1,3.1l3.5,4.3l1.1,6.2l0,0l-26.3,0.3l-6.1-10.1
	l-5.6,5.2l-1.3-2.1l-1,0.5l-2.8,7.8l0.5,1.9l0.9-0.1l-0.1,2.3l1.5,0.9l0.3,3.2l-3.6,6.1l-3.7-1.3l-19.1,0.5l2.7,6.3l5.7,2l0,0l0,0
	l0,0l-3.2,6.8l0,0l-2,0.3l-10.2-7l-1.3-4.5l-4.4-3.4l-2-4.9l-0.9-0.7l-0.9,1.3l-1.5-3.4l0.5-1.4v-0.7l-1.3-4l0.6-0.7l-0.9-0.4
	l0.3-1.1l1.3,0.6l1.5-1.1l-2-0.7l1.2-5.4l-2.7-6.6l1.9-2.4l0,0L524.5,1050z"/>
<path id="PH-SLU_1_" class="st13" d="M286.5,1139.4l1.3,2.5l-2,1.8l-0.5-1.7L286.5,1139.4z M285.1,1142.4l-1.9-0.6l2.4-2.7
	L285.1,1142.4L285.1,1142.4z M284.7,1135.7l1.2,1l-0.8,2.4l-2.9,1.7l-0.9-2.2l1.4-2.5L284.7,1135.7L284.7,1135.7z M288.7,1134.3
	l4,3.4l-1.7,2.9l-1.8,0.8l-3-2.7l-0.2-1.4l0.7-2.1L288.7,1134.3L288.7,1134.3z M304.8,1127.4l-2.4,1.8l-2-1.8l4.1-0.9L304.8,1127.4
	L304.8,1127.4z M289.9,1126l1.6,0.7l-2,1.9h-4.6l0.9-2.6H289.9z M299.8,1123.5l1,0.4l-0.5,1.2l-1.1-0.6L299.8,1123.5z M293.6,1122.1
	l1,2.9l-3.1,1.6l-0.2-3.5L293.6,1122.1z M310.2,1115.3l3.2,1.1l1.1,2.4l-3.2,1.6l-1.6-0.6l-0.6-1.9L310.2,1115.3L310.2,1115.3z
	 M222.5,1112.7l1.7,1.7l-3-0.7L222.5,1112.7z M224.8,1113.9l3.6-1.2l-0.9,1.3l-2.6,0.5L224.8,1113.9L224.8,1113.9z M226.8,1108.8
	l-0.1,1.3l-0.1,0.8l-1.4-0.7l0.5-1.4L226.8,1108.8L226.8,1108.8z M342.1,1106.2l0.8,1.8l-1.9,1.4l-0.9-1.8l0.8-0.9l0.3-0.4
	L342.1,1106.2L342.1,1106.2z M235.9,1107.6l-1,0.2l-1.5-1.6l0.7-1.1l1.3,0.7L235.9,1107.6L235.9,1107.6z M339.9,1102.4v1l-2.5,1.3
	l1.5-3.1h1.2L339.9,1102.4L339.9,1102.4z M329.9,1100.5l1.2,1.4l-0.5,1.4l-2.9-0.1l-0.5-1.4l1.7-1.5L329.9,1100.5z M348.5,1100.5
	l1.1,1.3l2.7,0.4l-4.4,3.1l-1.1-0.7l2.4-2.3l-1.2-0.8L348.5,1100.5z M332.5,1098.9l0.5,1l-1.1,0.9l-0.3-1.6L332.5,1098.9
	L332.5,1098.9z M307.6,1097.8l3.1,1l3.8,5.9l5.3-1.7l2.7,1.3l3.4-0.3l0.5-0.1l1.7-0.3l1.8,1.1l0.5,2.6l-2.7,1.3l-0.2,2.7l-2.3-1
	l-4.9,4.4l-1.1-0.9l0.8-0.6l-3.2-1.2l0.7-2l-0.6-1.2l-3-1.2l-1,1.4l-0.8-0.6l-0.7,1.4l-1.8,0.1v0.9l-3.9,1.3l-0.7,1l-3.7-3.8
	l-6.1,2.9l-4.4-2.3l-0.4-2.5l3.4-5.2l5.7-2l1.5-2.4L307.6,1097.8L307.6,1097.8z M355.3,1097.7l3.5,3.8l3.3,1.5l6.3-2.4l-2.8,2.5
	l-4,1.5l-5.8-4l-1.5-1.8L355.3,1097.7L355.3,1097.7z M266,1093.9l1.4,1.3l-1,1.1l-1-1L266,1093.9L266,1093.9z M360.5,1093.7l0.8,2
	l-2.4,0.1l-0.2-1L360.5,1093.7z M260.1,1091.9l0.6,0.8l-1,2.2l-2.7-1.4L260.1,1091.9z M358.9,1091.6l1,2l-1.9,1.4l-0.8-1.7
	L358.9,1091.6z M297,1089.4l1.9,0.9l-0.4,1.2l-1.7,0.4L297,1089.4z M274.5,1081.2l0.9,1.1l-0.3,2l-2.2,2.1l-0.9-1.2l1.2-1.7
	L274.5,1081.2L274.5,1081.2z M289.5,1079.5l1,1.7l-2.4,0.8l0.3-2L289.5,1079.5L289.5,1079.5z M270.2,1075.8l-1.3,10.5l-3.3,0.8
	l-4-1.1l0.1-1.3l2.8,0.5l2.6-7.8L270.2,1075.8L270.2,1075.8z M278.5,1072.7v3l-3-0.6l-0.1-0.9L278.5,1072.7L278.5,1072.7z"/>
<path id="PH-SUN_1_" class="st18" d="M635.5,833l2.6,0.4l-1,0.8l0.6,3.4l-1.1-0.4l-0.5-3l-1.5,0.5L635.5,833L635.5,833z
	 M664.6,832.6l3,0.3v1.4L665,834l-1.8,2.2v-1.5l-2.6,1l-0.5-1.8l1.1-0.5l-0.1-1.2l1.9,2.1L664.6,832.6L664.6,832.6z M658.3,830.7
	l-0.2,1.8h1.5l0.1-0.8l0.7,1.3l-0.8,0.5l0.2,2.5l1.7,0.3l0.4,1.6l-1.7,2.9l-0.3,4.1l-1.7,0.6v-1.1l-2.5-1.7l-1.1-1.1l1.3-0.8
	l0.3-0.2l-0.2-2l1.4-0.1l-0.8-3l0.7-0.5l-1.4-1.3l1.1-0.5l-0.5-2L658.3,830.7L658.3,830.7z M636.5,828.3l1.8,2.8l-2.5-1.1h-0.6
	L636.5,828.3z M642,828.3l1.7,0.8l-1,2.1l-1.8-0.8l-0.4-2l1.3-0.3L642,828.3L642,828.3z M625.9,828.2l0.7,2.1l2.9-0.3l0.9,1.3
	l1.3-0.5L631,832l1.7,1.6l-0.3,1.2l1.5,1.9l-0.7,1.1l0.7,1.6l0.2,0.7l3.3,2.3l2.4-0.3l1.8,1.3l2-0.5l0.1,1.9l7.6,1.8l2.1,1.6v1.5
	l3.1,0.3l0,0l-12.3,12.5l0,0l-0.5-4.9l-3.9-3.3l-9.1-1.7l-5.2,0.2l-2.7,1.2l0,0l-4.5-15.8l0.7-8.1l2.8-1.9l-0.2-2.3l1.6,1l-0.6,1.5
	l1.5-0.2L625.9,828.2L625.9,828.2z M636.5,819.3l0.1,3.9l1.1,0.9l2.2-0.1l-7.1,3.4l0.4-2l-1.2,0.8l-0.1-1.4l3.1-5.1L636.5,819.3
	L636.5,819.3z M627.3,819.6l2.7,3.6l-3.2-1.8L627.3,819.6L627.3,819.6z M660.3,815.9l0.8,1.3l-0.7,1.9l-1.8,1.9l-1.3,0.5l-0.7,0.8
	l-0.9-0.4l-0.2-0.9l0.5,0.5l3.3-3.3l-0.5-0.5l1.6-0.3L660.3,815.9L660.3,815.9z M667,808.4l4.3,13.7l-0.7,1l-1,0.5l0.1,0.3l1.7,1.2
	l1.3-0.6l0.5,2.8h1.5l-0.4,1.5l-3.6,2.8l-4.6-0.5l-1.9-1.2l-3.9-3l-1.7-1.7l0.8-1.5l2.5-0.1l-2.5-1.8l1.2-1.7l0.5-1.7l2.8-3.7
	l1.1-2.1l-0.5-1.7L667,808.4L667,808.4z"/>
<path id="PH-BAS_1_" class="st7" d="M371.3,1082.1l0.1,1.6l-0.7,0.2l-1.6-0.7l0.4-1.5L371.3,1082.1z M340.5,1053.3l-0.4,0.8l2.2,1.2
	l0.8,3.8l1.6,1.7l0.2-2.6l0.5-1.2l-3.2-2.3L340.5,1053.3z M373.3,1080.5l1.7,0.1l-0.9-1.6L373.3,1080.5z M371.1,1079.8l-0.7-1.7
	l-1.9,0.8l0.6,1.1L371.1,1079.8L371.1,1079.8z M394.4,1057.6l-3,0.2l-2.2-1.7l-6.6-0.3l-0.5-3.4l-2.9,0.3l-2.5-2.8l-2,0.7l-1.2-0.3
	l-2,0.7l-4.9,4.7l-2.9,1.1l-3.8-1.7l-2.2,2.1l-0.7,3.2l2.2,1.7l1.9-0.4l2.1,2.1l-1.1,1.2l0.4,2.8l2.4,1.5l1.2,2.6l2.8,1.2l-0.1,1.7
	l6-0.3l10.4-3l1-1l-0.3-3.9l1.5-4.3l1.9-1.1l4.8,0.3l1.7-2.5L394.4,1057.6L394.4,1057.6z M371.5,1050.3l-0.9-0.7l-2.1,0.9l-0.7,2.3
	l1.6-0.3L371.5,1050.3L371.5,1050.3z"/>
<path id="PH-ZAS_1_" class="st5" d="M438.6,965.1l3.4,0.3l8.4-6.1l6.5,0.2v-4l1.9-4l0.5-9.7l10.7,0.6l2.5,1.2h12.1l0,0l1,12.4
	l2.8,1.5l2.4-0.5l0.1,1.3l0,0l0.3,0.7l0.2,0.8l0.1,1.2l1.8,1.6l0,0l-3.5,9.1l0,0l-4.1-1.7l-7.6,2.9l-2.7-0.3l0.5,2.5l-0.7,0.9
	l1.8,0.4l-0.2,1.2l2.8,1.3l-0.3,4.3l-1.1,2.9l-5.6,1.6l0.3,3.7l-2.3-1.7l-1.4,1.9l3.2,1.3l-0.1,3.1l1.1,2.4l1.2-0.6l2.8,2.4l-1,1.8
	l1.1,2.6l-2.2,0.1l-0.5,1l-2.5-1.2l-0.5-1.7l-3.2-1.2l-0.7-1.9l-2.7-1.9l1.2-4.6l-5.6-0.6l-3.1,2.5l1.2,1.4l-1.6,1.4l-1.1-1.2l0.6-1
	l-3.9-1.4L452,991l1.9-0.4l0.1-1l-2.4-1.6l1.8-0.2l1.1,2l2.8,0.1l1.5-1.2l-1.4-3.6l-2.7-0.2l0.3-0.8l-1.2-0.5l1.3-1.9l-0.5-1.8
	l-1.7-1.5l-1.3,2.1l0,0l-0.9-7.7l-12.3-1.6L438.6,965.1L438.6,965.1z"/>
<text transform="matrix(1 0 0 1 274.8484 216.1596)" class="st26 st27 st28">1</text>
<text transform="matrix(1 0 0 1 280.0984 255.3538)" class="st26 st27 st28">5</text>
<text transform="matrix(1 0 0 1 265.3485 295.6557)" class="st26 st27 st28">4</text>
<text transform="matrix(1 0 0 1 285.848 295.6557)" class="st26 st27 st28">6</text>
<text transform="matrix(1 0 0 1 363.6987 295.6557)" class="st26 st27 st28">8</text>
<text transform="matrix(1 0 0 1 253.0982 326.4542)" class="st26 st27 st28">9</text>
<text transform="matrix(1 0 0 1 267.1985 338.8539)" class="st26 st27 st28">10</text>
<text transform="matrix(1 0 0 1 296.6985 347.7542)" class="st26 st27 st28">11</text>
<text transform="matrix(1 0 0 1 331.6985 356.8041)" class="st26 st27 st28">12</text>
<text transform="matrix(1 0 0 1 239.0985 381.8041)" class="st26 st27 st28">13</text>
<text transform="matrix(1 0 0 1 251.3983 414.7543)" class="st26 st27 st28">14</text>
<text transform="matrix(1 0 0 1 335.5002 394.1042)" class="st26 st27 st28">16</text>
<text transform="matrix(1 0 0 1 231.6986 441.704)" class="st26 st27 st28">17</text>
<text transform="matrix(1 0 0 1 265.3485 445.2542)" class="st26 st27 st28">18</text>
<text transform="matrix(1 0 0 1 299.9985 449.7542)" class="st26 st27 st28">19</text>
<text transform="matrix(1 0 0 1 255.4986 478.8531)" class="st26 st27 st28">20</text>
<text transform="matrix(1 0 0 1 289.8509 478.8532)" class="st26 st27 st28">21</text>
<text transform="matrix(1 0 0 1 310.6819 473.8523)" class="st26 st27 st28">22</text>
<text transform="matrix(1 0 0 1 384.8479 540.0204)" class="st26 st27 st28">26</text>
<text transform="matrix(1 0 0 1 455.3479 553.6541)" class="st26 st27 st28">28</text>
<text transform="matrix(1 0 0 1 526.4463 540.0204)" class="st26 st27 st28">29</text>
<text transform="matrix(1 0 0 1 474.7463 583.4544)" class="st26 st27 st28">30</text>
<text transform="matrix(1 0 0 1 508.7463 618.9544)" class="st26 st27 st28">31</text>
<text transform="matrix(1 0 0 1 360.0986 568.9544)" class="st26 st27 st28">34</text>
<text transform="matrix(1 0 0 1 371.3477 646.3567)" class="st26 st27 st28">35</text>
<text transform="matrix(1 0 0 1 465.3975 646.3563)" class="st26 st27 st28">36</text>
<text transform="matrix(1 0 0 1 575.0637 641.9542)" class="st26 st27 st28">37</text>
<text transform="matrix(1 0 0 1 575.0635 677.0043)" class="st26 st27 st28">38</text>
<text transform="matrix(1 0 0 1 363.6992 744.3377)" class="st26 st27 st28">41</text>
<text transform="matrix(1 0 0 1 401.1987 746.3377)" class="st26 st27 st28">44</text>
<text transform="matrix(1 0 0 1 445.699 771.671)" class="st26 st27 st28">45</text>
<text transform="matrix(1 0 0 1 439.1985 871.7045)" class="st26 st27 st28">46</text>
<text transform="matrix(1 0 0 1 495.5981 789.3712)" class="st26 st27 st28">47</text>
<text transform="matrix(1 0 0 1 524.498 829.7045)" class="st26 st27 st28">48</text>
<text transform="matrix(1 0 0 1 566.7319 741.4537)" class="st26 st27 st28">49</text>
<text transform="matrix(1 0 0 1 594.8979 793.4545)" class="st26 st27 st28">50</text>
<text transform="matrix(1 0 0 1 639.9985 838.1543)" class="st26 st27 st28">51</text>
<text transform="matrix(1 0 0 1 612.6985 903.2545)" class="st26 st27 st28">52</text>
<text transform="matrix(1 0 0 1 657.7983 891.2545)" class="st26 st27 st28">53</text>
<text transform="matrix(1 0 0 1 633.2981 941.7539)" class="st26 st27 st28">59</text>
<text transform="matrix(1 0 0 1 575.8979 911.0542)" class="st26 st27 st28">58</text>
<text transform="matrix(1 0 0 1 529.8486 979.0542)" class="st26 st27 st28">60</text>
<text transform="matrix(1 0 0 1 576.9482 963.8538)" class="st26 st27 st28">61</text>
<text transform="matrix(1 0 0 1 643.8977 990.7545)" class="st26 st27 st28">62</text>
<text transform="matrix(1 0 0 1 676.8982 1033.4542)" class="st26 st27 st28">63</text>
<text transform="matrix(1 0 0 1 609.4976 1053.5535)" class="st26 st27 st28">66</text>
<text transform="matrix(1 0 0 1 576.9482 1021.8541)" class="st26 st27 st28">65</text>
<text transform="matrix(1 0 0 1 526.4458 1042.8541)" class="st26 st27 st28">64</text>
<text transform="matrix(1 0 0 1 532.4458 1072.6539)" class="st26 st27 st28">67</text>
<text transform="matrix(1 0 0 1 569.3979 1095.7539)" class="st26 st27 st28">68</text>
<text transform="matrix(1 0 0 1 364.8987 1070.2539)" class="st26 st27 st28">69</text>
<text transform="matrix(1 0 0 1 304.5986 1105.7539)" class="st26 st27 st28">70</text>
<text transform="matrix(1 0 0 1 221.1986 1158.7539)" class="st26 st27 st28">71</text>
<text transform="matrix(1 0 0 1 507.4988 963.1537)" class="st26 st27 st28">57</text>
<text transform="matrix(1 0 0 1 461.999 963.1537)" class="st26 st27 st28">56</text>
<text transform="matrix(1 0 0 1 489.8984 938.7541)" class="st26 st27 st28">55</text>
<text transform="matrix(1 0 0 1 455.3477 938.7539)" class="st26 st27 st28">54</text>
<text transform="matrix(1 0 0 1 410.8652 716.6541)" class="st26 st27 st28">43</text>
<text transform="matrix(1 0 0 1 384.8477 698.2537)" class="st26 st27 st28">42</text>
<text transform="matrix(1 0 0 1 604.1311 663.7538)" class="st26 st27 st28">39</text>
<text transform="matrix(1 0 0 1 304.5984 577.3539)" class="st26 st27 st28">33</text>
<text transform="matrix(1 0 0 1 290.6988 604.9543)" class="st26 st27 st28">32</text>
<text transform="matrix(1 0 0 1 147.1986 807.7041)" class="st26 st27 st28">40</text>
<text transform="matrix(1 0 0 1 418.0144 511.3536)" class="st26 st27 st28">27</text>
<text transform="matrix(1 0 0 1 315.0652 509.8535)" class="st26 st27 st28">24</text>
<text transform="matrix(1 0 0 1 278.065 504.0042)" class="st26 st27 st28">23</text>
<text transform="matrix(1 0 0 1 291.7318 530.0541)" class="st26 st27 st28">25</text>
<text transform="matrix(1 0 0 1 290.6988 408.6543)" class="st26 st27 st28">15</text>
<text transform="matrix(1 0 0 1 306.3486 312.4541)" class="st26 st27 st28">7</text>
<text transform="matrix(1 0 0 1 308.4985 216.1596)" class="st26 st27 st28">2</text>
<text transform="matrix(1 0 0 1 354.2488 216.0096)" class="st26 st27 st28">3</text>
</svg>
